solid Dragchain setup complete
facet normal -0.9914448613738028 -0.13052619222010964 0.0
  outer loop
    vertex 204.3412525171973 278.8584369030265 6.232320068457866
    vertex 204.3923637777637 278.4702083353727 0.39232006845786527
    vertex 204.3923637777637 278.4702083353727 6.232320068457866
  endloop
endfacet
facet normal -0.9914448613738028 -0.13052619222010964 0.0
  outer loop
    vertex 204.3923637777637 278.4702083353727 0.39232006845786527
    vertex 204.3412525171973 278.8584369030265 6.232320068457866
    vertex 204.3412525171973 278.8584369030265 0.39232006845786527
  endloop
endfacet
facet normal 0.9914448613738103 -0.13052619222005302 0.0
  outer loop
    vertex 201.44347503833012 278.8584369030265 0.39232006845786527
    vertex 201.39236377776373 278.4702083353727 6.232320068457866
    vertex 201.39236377776373 278.4702083353727 0.39232006845786527
  endloop
endfacet
facet normal 0.9914448613738103 -0.13052619222005302 0.0
  outer loop
    vertex 201.39236377776373 278.4702083353727 6.232320068457866
    vertex 201.44347503833012 278.8584369030265 0.39232006845786527
    vertex 201.44347503833012 278.8584369030265 6.232320068457866
  endloop
endfacet
facet normal -0.9238795325112966 0.38268343236506647 0.0
  outer loop
    vertex 204.3412525171973 278.0819797677189 6.232320068457866
    vertex 204.19140188344036 277.7202083353727 0.39232006845786527
    vertex 204.19140188344036 277.7202083353727 6.232320068457866
  endloop
endfacet
facet normal -0.9238795325112966 0.38268343236506647 0.0
  outer loop
    vertex 204.19140188344036 277.7202083353727 0.39232006845786527
    vertex 204.3412525171973 278.0819797677189 6.232320068457866
    vertex 204.3412525171973 278.0819797677189 0.39232006845786527
  endloop
endfacet
facet normal 0.0 -1.0 0.0
  outer loop
    vertex 206.8923637777637 275.9702083353727 6.232320068457866
    vertex 198.89236377776376 275.9702083353727 5.232320068457866
    vertex 206.8923637777637 275.9702083353727 5.232320068457866
  endloop
endfacet
facet normal 0.0 -1.0 0.0
  outer loop
    vertex 198.89236377776376 275.9702083353727 5.232320068457866
    vertex 206.8923637777637 275.9702083353727 6.232320068457866
    vertex 198.89236377776376 275.9702083353727 6.232320068457866
  endloop
endfacet
facet normal -0.7933533402912067 -0.6087614290087577 0.0
  outer loop
    vertex 203.9530239495435 279.53086850715255 6.232320068457866
    vertex 204.19140188344036 279.2202083353727 0.39232006845786527
    vertex 204.19140188344036 279.2202083353727 6.232320068457866
  endloop
endfacet
facet normal -0.7933533402912067 -0.6087614290087577 0.0
  outer loop
    vertex 204.19140188344036 279.2202083353727 0.39232006845786527
    vertex 203.9530239495435 279.53086850715255 6.232320068457866
    vertex 203.9530239495435 279.53086850715255 0.39232006845786527
  endloop
endfacet
facet normal 0.608761429008713 -0.7933533402912412 0.0
  outer loop
    vertex 202.1423637777637 279.76924644104935 6.232320068457866
    vertex 201.8317036059839 279.53086850715255 0.39232006845786527
    vertex 202.1423637777637 279.76924644104935 0.39232006845786527
  endloop
endfacet
facet normal 0.608761429008713 -0.7933533402912412 0.0
  outer loop
    vertex 201.8317036059839 279.53086850715255 0.39232006845786527
    vertex 202.1423637777637 279.76924644104935 6.232320068457866
    vertex 201.8317036059839 279.53086850715255 6.232320068457866
  endloop
endfacet
facet normal -0.38268343236506647 0.9238795325112966 0.0
  outer loop
    vertex 203.2805923454175 277.02131959593913 6.232320068457866
    vertex 203.6423637777637 277.17117022969603 0.39232006845786527
    vertex 203.2805923454175 277.02131959593913 0.39232006845786527
  endloop
endfacet
facet normal -0.38268343236506647 0.9238795325112966 0.0
  outer loop
    vertex 203.6423637777637 277.17117022969603 0.39232006845786527
    vertex 203.2805923454175 277.02131959593913 6.232320068457866
    vertex 203.6423637777637 277.17117022969603 6.232320068457866
  endloop
endfacet
facet normal 0.7933533402912624 -0.6087614290086851 0.0
  outer loop
    vertex 201.8317036059839 279.53086850715255 0.39232006845786527
    vertex 201.59332567208708 279.2202083353727 6.232320068457866
    vertex 201.59332567208708 279.2202083353727 0.39232006845786527
  endloop
endfacet
facet normal 0.7933533402912624 -0.6087614290086851 0.0
  outer loop
    vertex 201.59332567208708 279.2202083353727 6.232320068457866
    vertex 201.8317036059839 279.53086850715255 0.39232006845786527
    vertex 201.8317036059839 279.53086850715255 6.232320068457866
  endloop
endfacet
facet normal 0.0 0.0 1.0
  outer loop
    vertex 206.8923637777637 264.4702083353727 5.232320068457866
    vertex 198.89236377776376 275.9702083353727 5.232320068457866
    vertex 198.89236377776376 264.4702083353727 5.232320068457866
  endloop
endfacet
facet normal 0.0 0.0 1.0
  outer loop
    vertex 198.89236377776376 275.9702083353727 5.232320068457866
    vertex 206.8923637777637 264.4702083353727 5.232320068457866
    vertex 206.8923637777637 275.9702083353727 5.232320068457866
  endloop
endfacet
facet normal -0.13052619222010217 0.9914448613738037 0.0
  outer loop
    vertex 202.89236377776373 276.9702083353727 6.232320068457866
    vertex 203.2805923454175 277.02131959593913 0.39232006845786527
    vertex 202.89236377776373 276.9702083353727 0.39232006845786527
  endloop
endfacet
facet normal -0.13052619222010217 0.9914448613738037 0.0
  outer loop
    vertex 203.2805923454175 277.02131959593913 0.39232006845786527
    vertex 202.89236377776373 276.9702083353727 6.232320068457866
    vertex 203.2805923454175 277.02131959593913 6.232320068457866
  endloop
endfacet
facet normal 0.13052619221998893 -0.9914448613738188 0.0
  outer loop
    vertex 202.89236377776373 279.9702083353727 6.232320068457866
    vertex 202.50413521010995 279.91909707480636 0.39232006845786527
    vertex 202.89236377776373 279.9702083353727 0.39232006845786527
  endloop
endfacet
facet normal 0.13052619221998893 -0.9914448613738188 0.0
  outer loop
    vertex 202.50413521010995 279.91909707480636 0.39232006845786527
    vertex 202.89236377776373 279.9702083353727 6.232320068457866
    vertex 202.50413521010995 279.91909707480636 6.232320068457866
  endloop
endfacet
facet normal 0.0 -1.0 0.0
  outer loop
    vertex 206.8923637777637 264.4702083353727 5.232320068457866
    vertex 198.89236377776376 264.4702083353727 0.39232006845786527
    vertex 206.8923637777637 264.4702083353727 0.39232006845786527
  endloop
endfacet
facet normal 0.0 -1.0 0.0
  outer loop
    vertex 198.89236377776376 264.4702083353727 0.39232006845786527
    vertex 206.8923637777637 264.4702083353727 5.232320068457866
    vertex 198.89236377776376 264.4702083353727 5.232320068457866
  endloop
endfacet
facet normal 0.0 0.0 1.0
  outer loop
    vertex 198.89236377776376 275.9702083353727 6.232320068457866
    vertex 201.8317036059839 277.4095481635929 6.232320068457866
    vertex 198.89236377776376 280.9702083353727 6.232320068457866
  endloop
endfacet
facet normal 0.0 0.0 1.0
  outer loop
    vertex 201.8317036059839 277.4095481635929 6.232320068457866
    vertex 198.89236377776376 275.9702083353727 6.232320068457866
    vertex 202.14236377776373 277.17117022969603 6.232320068457866
  endloop
endfacet
facet normal 0.0 0.0 1.0
  outer loop
    vertex 202.14236377776373 277.17117022969603 6.232320068457866
    vertex 198.89236377776376 275.9702083353727 6.232320068457866
    vertex 202.50413521010995 277.02131959593913 6.232320068457866
  endloop
endfacet
facet normal 0.0 0.0 1.0
  outer loop
    vertex 202.50413521010995 277.02131959593913 6.232320068457866
    vertex 198.89236377776376 275.9702083353727 6.232320068457866
    vertex 206.8923637777637 275.9702083353727 6.232320068457866
  endloop
endfacet
facet normal 0.0 0.0 1.0
  outer loop
    vertex 198.89236377776376 280.9702083353727 6.232320068457866
    vertex 201.8317036059839 277.4095481635929 6.232320068457866
    vertex 201.59332567208708 277.7202083353727 6.232320068457866
  endloop
endfacet
facet normal 0.0 0.0 1.0
  outer loop
    vertex 198.89236377776376 280.9702083353727 6.232320068457866
    vertex 201.59332567208708 277.7202083353727 6.232320068457866
    vertex 201.44347503833012 278.0819797677189 6.232320068457866
  endloop
endfacet
facet normal 0.0 0.0 1.0
  outer loop
    vertex 198.89236377776376 280.9702083353727 6.232320068457866
    vertex 201.44347503833012 278.0819797677189 6.232320068457866
    vertex 201.39236377776373 278.4702083353727 6.232320068457866
  endloop
endfacet
facet normal 0.0 0.0 1.0
  outer loop
    vertex 202.50413521010995 277.02131959593913 6.232320068457866
    vertex 206.8923637777637 275.9702083353727 6.232320068457866
    vertex 202.89236377776373 276.9702083353727 6.232320068457866
  endloop
endfacet
facet normal 0.0 0.0 1.0
  outer loop
    vertex 202.89236377776373 276.9702083353727 6.232320068457866
    vertex 206.8923637777637 275.9702083353727 6.232320068457866
    vertex 203.2805923454175 277.02131959593913 6.232320068457866
  endloop
endfacet
facet normal 0.0 0.0 1.0
  outer loop
    vertex 203.2805923454175 277.02131959593913 6.232320068457866
    vertex 206.8923637777637 275.9702083353727 6.232320068457866
    vertex 203.6423637777637 277.17117022969603 6.232320068457866
  endloop
endfacet
facet normal 0.0 0.0 1.0
  outer loop
    vertex 203.6423637777637 277.17117022969603 6.232320068457866
    vertex 206.8923637777637 275.9702083353727 6.232320068457866
    vertex 203.9530239495435 277.4095481635929 6.232320068457866
  endloop
endfacet
facet normal 0.0 0.0 1.0
  outer loop
    vertex 203.9530239495435 277.4095481635929 6.232320068457866
    vertex 206.8923637777637 275.9702083353727 6.232320068457866
    vertex 204.19140188344036 277.7202083353727 6.232320068457866
  endloop
endfacet
facet normal 0.0 0.0 1.0
  outer loop
    vertex 204.19140188344036 277.7202083353727 6.232320068457866
    vertex 206.8923637777637 275.9702083353727 6.232320068457866
    vertex 204.3412525171973 278.0819797677189 6.232320068457866
  endloop
endfacet
facet normal 0.0 0.0 1.0
  outer loop
    vertex 204.3412525171973 278.0819797677189 6.232320068457866
    vertex 206.8923637777637 275.9702083353727 6.232320068457866
    vertex 204.3923637777637 278.4702083353727 6.232320068457866
  endloop
endfacet
facet normal 0.0 0.0 1.0
  outer loop
    vertex 198.89236377776376 280.9702083353727 6.232320068457866
    vertex 202.50413521010995 279.91909707480636 6.232320068457866
    vertex 206.8923637777637 280.9702083353727 6.232320068457866
  endloop
endfacet
facet normal 0.0 0.0 1.0
  outer loop
    vertex 202.50413521010995 279.91909707480636 6.232320068457866
    vertex 198.89236377776376 280.9702083353727 6.232320068457866
    vertex 202.1423637777637 279.76924644104935 6.232320068457866
  endloop
endfacet
facet normal 0.0 0.0 1.0
  outer loop
    vertex 202.1423637777637 279.76924644104935 6.232320068457866
    vertex 198.89236377776376 280.9702083353727 6.232320068457866
    vertex 201.8317036059839 279.53086850715255 6.232320068457866
  endloop
endfacet
facet normal 0.0 0.0 1.0
  outer loop
    vertex 201.8317036059839 279.53086850715255 6.232320068457866
    vertex 198.89236377776376 280.9702083353727 6.232320068457866
    vertex 201.59332567208708 279.2202083353727 6.232320068457866
  endloop
endfacet
facet normal 0.0 0.0 1.0
  outer loop
    vertex 201.59332567208708 279.2202083353727 6.232320068457866
    vertex 198.89236377776376 280.9702083353727 6.232320068457866
    vertex 201.44347503833012 278.8584369030265 6.232320068457866
  endloop
endfacet
facet normal 0.0 0.0 1.0
  outer loop
    vertex 201.44347503833012 278.8584369030265 6.232320068457866
    vertex 198.89236377776376 280.9702083353727 6.232320068457866
    vertex 201.39236377776373 278.4702083353727 6.232320068457866
  endloop
endfacet
facet normal 0.0 0.0 1.0
  outer loop
    vertex 206.8923637777637 280.9702083353727 6.232320068457866
    vertex 202.50413521010995 279.91909707480636 6.232320068457866
    vertex 202.89236377776373 279.9702083353727 6.232320068457866
  endloop
endfacet
facet normal 0.0 0.0 1.0
  outer loop
    vertex 206.8923637777637 280.9702083353727 6.232320068457866
    vertex 202.89236377776373 279.9702083353727 6.232320068457866
    vertex 203.2805923454175 279.91909707480636 6.232320068457866
  endloop
endfacet
facet normal 0.0 0.0 1.0
  outer loop
    vertex 206.8923637777637 280.9702083353727 6.232320068457866
    vertex 203.2805923454175 279.91909707480636 6.232320068457866
    vertex 203.6423637777637 279.76924644104935 6.232320068457866
  endloop
endfacet
facet normal 0.0 0.0 1.0
  outer loop
    vertex 206.8923637777637 280.9702083353727 6.232320068457866
    vertex 203.6423637777637 279.76924644104935 6.232320068457866
    vertex 203.9530239495435 279.53086850715255 6.232320068457866
  endloop
endfacet
facet normal 0.0 0.0 1.0
  outer loop
    vertex 206.8923637777637 280.9702083353727 6.232320068457866
    vertex 203.9530239495435 279.53086850715255 6.232320068457866
    vertex 204.19140188344036 279.2202083353727 6.232320068457866
  endloop
endfacet
facet normal 0.0 0.0 1.0
  outer loop
    vertex 206.8923637777637 280.9702083353727 6.232320068457866
    vertex 204.19140188344036 279.2202083353727 6.232320068457866
    vertex 204.3412525171973 278.8584369030265 6.232320068457866
  endloop
endfacet
facet normal 0.0 0.0 1.0
  outer loop
    vertex 206.8923637777637 280.9702083353727 6.232320068457866
    vertex 204.3412525171973 278.8584369030265 6.232320068457866
    vertex 204.3923637777637 278.4702083353727 6.232320068457866
  endloop
endfacet
facet normal 0.0 0.0 1.0
  outer loop
    vertex 206.8923637777637 280.9702083353727 6.232320068457866
    vertex 204.3923637777637 278.4702083353727 6.232320068457866
    vertex 206.8923637777637 275.9702083353727 6.232320068457866
  endloop
endfacet
facet normal 0.9914448613738123 0.13052619222003806 0.0
  outer loop
    vertex 201.39236377776373 278.4702083353727 0.39232006845786527
    vertex 201.44347503833012 278.0819797677189 6.232320068457866
    vertex 201.44347503833012 278.0819797677189 0.39232006845786527
  endloop
endfacet
facet normal 0.9914448613738123 0.13052619222003806 0.0
  outer loop
    vertex 201.44347503833012 278.0819797677189 6.232320068457866
    vertex 201.39236377776373 278.4702083353727 0.39232006845786527
    vertex 201.39236377776373 278.4702083353727 6.232320068457866
  endloop
endfacet
facet normal 0.13052619222010217 0.9914448613738037 0.0
  outer loop
    vertex 202.50413521010995 277.02131959593913 6.232320068457866
    vertex 202.89236377776373 276.9702083353727 0.39232006845786527
    vertex 202.50413521010995 277.02131959593913 0.39232006845786527
  endloop
endfacet
facet normal 0.13052619222010217 0.9914448613738037 0.0
  outer loop
    vertex 202.89236377776373 276.9702083353727 0.39232006845786527
    vertex 202.50413521010995 277.02131959593913 6.232320068457866
    vertex 202.89236377776373 276.9702083353727 6.232320068457866
  endloop
endfacet
facet normal 1.0 0.0 0.0
  outer loop
    vertex 206.8923637777637 292.4702083353727 0.39232006845786527
    vertex 206.8923637777637 264.4702083353727 5.232320068457866
    vertex 206.8923637777637 264.4702083353727 0.39232006845786527
  endloop
endfacet
facet normal 1.0 0.0 0.0
  outer loop
    vertex 206.8923637777637 264.4702083353727 5.232320068457866
    vertex 206.8923637777637 292.4702083353727 0.39232006845786527
    vertex 206.8923637777637 275.9702083353727 5.232320068457866
  endloop
endfacet
facet normal 1.0 0.0 0.0
  outer loop
    vertex 206.8923637777637 275.9702083353727 5.232320068457866
    vertex 206.8923637777637 292.4702083353727 0.39232006845786527
    vertex 206.8923637777637 275.9702083353727 6.232320068457866
  endloop
endfacet
facet normal 1.0 0.0 0.0
  outer loop
    vertex 206.8923637777637 275.9702083353727 6.232320068457866
    vertex 206.8923637777637 292.4702083353727 0.39232006845786527
    vertex 206.8923637777637 280.9702083353727 5.232320068457866
  endloop
endfacet
facet normal 1.0 0.0 0.0
  outer loop
    vertex 206.8923637777637 280.9702083353727 5.232320068457866
    vertex 206.8923637777637 292.4702083353727 0.39232006845786527
    vertex 206.8923637777637 292.4702083353727 5.232320068457866
  endloop
endfacet
facet normal 1.0 0.0 0.0
  outer loop
    vertex 206.8923637777637 280.9702083353727 6.232320068457866
    vertex 206.8923637777637 275.9702083353727 6.232320068457866
    vertex 206.8923637777637 280.9702083353727 5.232320068457866
  endloop
endfacet
facet normal 0.0 0.0 -1.0
  outer loop
    vertex 198.89236377776376 292.4702083353727 0.39232006845786527
    vertex 201.44347503833012 278.8584369030265 0.39232006845786527
    vertex 198.89236377776376 264.4702083353727 0.39232006845786527
  endloop
endfacet
facet normal 0.0 0.0 -1.0
  outer loop
    vertex 201.44347503833012 278.8584369030265 0.39232006845786527
    vertex 198.89236377776376 292.4702083353727 0.39232006845786527
    vertex 206.8923637777637 292.4702083353727 0.39232006845786527
  endloop
endfacet
facet normal 0.0 0.0 -1.0
  outer loop
    vertex 198.89236377776376 264.4702083353727 0.39232006845786527
    vertex 201.44347503833012 278.8584369030265 0.39232006845786527
    vertex 201.39236377776373 278.4702083353727 0.39232006845786527
  endloop
endfacet
facet normal 0.0 0.0 -1.0
  outer loop
    vertex 201.44347503833012 278.8584369030265 0.39232006845786527
    vertex 206.8923637777637 292.4702083353727 0.39232006845786527
    vertex 201.59332567208708 279.2202083353727 0.39232006845786527
  endloop
endfacet
facet normal 0.0 0.0 -1.0
  outer loop
    vertex 201.59332567208708 279.2202083353727 0.39232006845786527
    vertex 206.8923637777637 292.4702083353727 0.39232006845786527
    vertex 201.8317036059839 279.53086850715255 0.39232006845786527
  endloop
endfacet
facet normal 0.0 0.0 -1.0
  outer loop
    vertex 201.8317036059839 279.53086850715255 0.39232006845786527
    vertex 206.8923637777637 292.4702083353727 0.39232006845786527
    vertex 202.1423637777637 279.76924644104935 0.39232006845786527
  endloop
endfacet
facet normal 0.0 0.0 -1.0
  outer loop
    vertex 202.1423637777637 279.76924644104935 0.39232006845786527
    vertex 206.8923637777637 292.4702083353727 0.39232006845786527
    vertex 202.50413521010995 279.91909707480636 0.39232006845786527
  endloop
endfacet
facet normal 0.0 0.0 -1.0
  outer loop
    vertex 202.50413521010995 279.91909707480636 0.39232006845786527
    vertex 206.8923637777637 292.4702083353727 0.39232006845786527
    vertex 202.89236377776373 279.9702083353727 0.39232006845786527
  endloop
endfacet
facet normal 0.0 0.0 -1.0
  outer loop
    vertex 202.89236377776373 279.9702083353727 0.39232006845786527
    vertex 206.8923637777637 292.4702083353727 0.39232006845786527
    vertex 203.2805923454175 279.91909707480636 0.39232006845786527
  endloop
endfacet
facet normal 0.0 0.0 -1.0
  outer loop
    vertex 203.2805923454175 279.91909707480636 0.39232006845786527
    vertex 206.8923637777637 292.4702083353727 0.39232006845786527
    vertex 203.6423637777637 279.76924644104935 0.39232006845786527
  endloop
endfacet
facet normal 0.0 0.0 -1.0
  outer loop
    vertex 203.6423637777637 279.76924644104935 0.39232006845786527
    vertex 206.8923637777637 292.4702083353727 0.39232006845786527
    vertex 203.9530239495435 279.53086850715255 0.39232006845786527
  endloop
endfacet
facet normal 0.0 0.0 -1.0
  outer loop
    vertex 203.9530239495435 279.53086850715255 0.39232006845786527
    vertex 206.8923637777637 292.4702083353727 0.39232006845786527
    vertex 204.19140188344036 279.2202083353727 0.39232006845786527
  endloop
endfacet
facet normal 0.0 0.0 -1.0
  outer loop
    vertex 204.19140188344036 279.2202083353727 0.39232006845786527
    vertex 206.8923637777637 292.4702083353727 0.39232006845786527
    vertex 204.3412525171973 278.8584369030265 0.39232006845786527
  endloop
endfacet
facet normal 0.0 0.0 -1.0
  outer loop
    vertex 204.3412525171973 278.8584369030265 0.39232006845786527
    vertex 206.8923637777637 292.4702083353727 0.39232006845786527
    vertex 204.3923637777637 278.4702083353727 0.39232006845786527
  endloop
endfacet
facet normal 0.0 0.0 -1.0
  outer loop
    vertex 198.89236377776376 264.4702083353727 0.39232006845786527
    vertex 201.44347503833012 278.0819797677189 0.39232006845786527
    vertex 206.8923637777637 264.4702083353727 0.39232006845786527
  endloop
endfacet
facet normal 0.0 0.0 -1.0
  outer loop
    vertex 201.44347503833012 278.0819797677189 0.39232006845786527
    vertex 198.89236377776376 264.4702083353727 0.39232006845786527
    vertex 201.39236377776373 278.4702083353727 0.39232006845786527
  endloop
endfacet
facet normal 0.0 0.0 -1.0
  outer loop
    vertex 206.8923637777637 264.4702083353727 0.39232006845786527
    vertex 201.44347503833012 278.0819797677189 0.39232006845786527
    vertex 201.59332567208708 277.7202083353727 0.39232006845786527
  endloop
endfacet
facet normal 0.0 0.0 -1.0
  outer loop
    vertex 206.8923637777637 264.4702083353727 0.39232006845786527
    vertex 201.59332567208708 277.7202083353727 0.39232006845786527
    vertex 201.8317036059839 277.4095481635929 0.39232006845786527
  endloop
endfacet
facet normal 0.0 0.0 -1.0
  outer loop
    vertex 206.8923637777637 264.4702083353727 0.39232006845786527
    vertex 201.8317036059839 277.4095481635929 0.39232006845786527
    vertex 202.14236377776373 277.17117022969603 0.39232006845786527
  endloop
endfacet
facet normal 0.0 0.0 -1.0
  outer loop
    vertex 206.8923637777637 264.4702083353727 0.39232006845786527
    vertex 202.14236377776373 277.17117022969603 0.39232006845786527
    vertex 202.50413521010995 277.02131959593913 0.39232006845786527
  endloop
endfacet
facet normal 0.0 0.0 -1.0
  outer loop
    vertex 206.8923637777637 264.4702083353727 0.39232006845786527
    vertex 202.50413521010995 277.02131959593913 0.39232006845786527
    vertex 202.89236377776373 276.9702083353727 0.39232006845786527
  endloop
endfacet
facet normal 0.0 0.0 -1.0
  outer loop
    vertex 206.8923637777637 264.4702083353727 0.39232006845786527
    vertex 202.89236377776373 276.9702083353727 0.39232006845786527
    vertex 203.2805923454175 277.02131959593913 0.39232006845786527
  endloop
endfacet
facet normal 0.0 0.0 -1.0
  outer loop
    vertex 206.8923637777637 264.4702083353727 0.39232006845786527
    vertex 203.2805923454175 277.02131959593913 0.39232006845786527
    vertex 203.6423637777637 277.17117022969603 0.39232006845786527
  endloop
endfacet
facet normal 0.0 0.0 -1.0
  outer loop
    vertex 206.8923637777637 264.4702083353727 0.39232006845786527
    vertex 203.6423637777637 277.17117022969603 0.39232006845786527
    vertex 203.9530239495435 277.4095481635929 0.39232006845786527
  endloop
endfacet
facet normal 0.0 0.0 -1.0
  outer loop
    vertex 206.8923637777637 264.4702083353727 0.39232006845786527
    vertex 203.9530239495435 277.4095481635929 0.39232006845786527
    vertex 204.19140188344036 277.7202083353727 0.39232006845786527
  endloop
endfacet
facet normal 0.0 0.0 -1.0
  outer loop
    vertex 206.8923637777637 264.4702083353727 0.39232006845786527
    vertex 204.19140188344036 277.7202083353727 0.39232006845786527
    vertex 204.3412525171973 278.0819797677189 0.39232006845786527
  endloop
endfacet
facet normal 0.0 0.0 -1.0
  outer loop
    vertex 206.8923637777637 264.4702083353727 0.39232006845786527
    vertex 204.3412525171973 278.0819797677189 0.39232006845786527
    vertex 204.3923637777637 278.4702083353727 0.39232006845786527
  endloop
endfacet
facet normal 0.0 0.0 -1.0
  outer loop
    vertex 206.8923637777637 264.4702083353727 0.39232006845786527
    vertex 204.3923637777637 278.4702083353727 0.39232006845786527
    vertex 206.8923637777637 292.4702083353727 0.39232006845786527
  endloop
endfacet
facet normal -0.13052619221998893 -0.9914448613738188 0.0
  outer loop
    vertex 203.2805923454175 279.91909707480636 6.232320068457866
    vertex 202.89236377776373 279.9702083353727 0.39232006845786527
    vertex 203.2805923454175 279.91909707480636 0.39232006845786527
  endloop
endfacet
facet normal -0.13052619221998893 -0.9914448613738188 0.0
  outer loop
    vertex 202.89236377776373 279.9702083353727 0.39232006845786527
    vertex 203.2805923454175 279.91909707480636 6.232320068457866
    vertex 202.89236377776373 279.9702083353727 6.232320068457866
  endloop
endfacet
facet normal -0.6087614290087409 0.7933533402912196 0.0
  outer loop
    vertex 203.6423637777637 277.17117022969603 6.232320068457866
    vertex 203.9530239495435 277.4095481635929 0.39232006845786527
    vertex 203.6423637777637 277.17117022969603 0.39232006845786527
  endloop
endfacet
facet normal -0.6087614290087409 0.7933533402912196 0.0
  outer loop
    vertex 203.9530239495435 277.4095481635929 0.39232006845786527
    vertex 203.6423637777637 277.17117022969603 6.232320068457866
    vertex 203.9530239495435 277.4095481635929 6.232320068457866
  endloop
endfacet
facet normal 0.9238795325112761 0.38268343236511554 0.0
  outer loop
    vertex 201.44347503833012 278.0819797677189 0.39232006845786527
    vertex 201.59332567208708 277.7202083353727 6.232320068457866
    vertex 201.59332567208708 277.7202083353727 0.39232006845786527
  endloop
endfacet
facet normal 0.9238795325112761 0.38268343236511554 0.0
  outer loop
    vertex 201.59332567208708 277.7202083353727 6.232320068457866
    vertex 201.44347503833012 278.0819797677189 0.39232006845786527
    vertex 201.44347503833012 278.0819797677189 6.232320068457866
  endloop
endfacet
facet normal 0.0 1.0 0.0
  outer loop
    vertex 198.89236377776376 280.9702083353727 6.232320068457866
    vertex 206.8923637777637 280.9702083353727 5.232320068457866
    vertex 198.89236377776376 280.9702083353727 5.232320068457866
  endloop
endfacet
facet normal 0.0 1.0 0.0
  outer loop
    vertex 206.8923637777637 280.9702083353727 5.232320068457866
    vertex 198.89236377776376 280.9702083353727 6.232320068457866
    vertex 206.8923637777637 280.9702083353727 6.232320068457866
  endloop
endfacet
facet normal -0.9914448613738048 0.13052619222009473 0.0
  outer loop
    vertex 204.3923637777637 278.4702083353727 6.232320068457866
    vertex 204.3412525171973 278.0819797677189 0.39232006845786527
    vertex 204.3412525171973 278.0819797677189 6.232320068457866
  endloop
endfacet
facet normal -0.9914448613738048 0.13052619222009473 0.0
  outer loop
    vertex 204.3412525171973 278.0819797677189 0.39232006845786527
    vertex 204.3923637777637 278.4702083353727 6.232320068457866
    vertex 204.3923637777637 278.4702083353727 0.39232006845786527
  endloop
endfacet
facet normal 0.6087614290086851 0.7933533402912624 0.0
  outer loop
    vertex 201.8317036059839 277.4095481635929 6.232320068457866
    vertex 202.14236377776373 277.17117022969603 0.39232006845786527
    vertex 201.8317036059839 277.4095481635929 0.39232006845786527
  endloop
endfacet
facet normal 0.6087614290086851 0.7933533402912624 0.0
  outer loop
    vertex 202.14236377776373 277.17117022969603 0.39232006845786527
    vertex 201.8317036059839 277.4095481635929 6.232320068457866
    vertex 202.14236377776373 277.17117022969603 6.232320068457866
  endloop
endfacet
facet normal 0.0 0.0 1.0
  outer loop
    vertex 206.8923637777637 280.9702083353727 5.232320068457866
    vertex 198.89236377776376 292.4702083353727 5.232320068457866
    vertex 198.89236377776376 280.9702083353727 5.232320068457866
  endloop
endfacet
facet normal 0.0 0.0 1.0
  outer loop
    vertex 198.89236377776376 292.4702083353727 5.232320068457866
    vertex 206.8923637777637 280.9702083353727 5.232320068457866
    vertex 202.89236377776373 292.4702083353727 5.232320068457866
  endloop
endfacet
facet normal 0.0 0.0 1.0
  outer loop
    vertex 202.89236377776373 292.4702083353727 5.232320068457866
    vertex 206.8923637777637 280.9702083353727 5.232320068457866
    vertex 206.8923637777637 292.4702083353727 5.232320068457866
  endloop
endfacet
facet normal 0.7933533402912624 0.6087614290086851 0.0
  outer loop
    vertex 201.59332567208708 277.7202083353727 0.39232006845786527
    vertex 201.8317036059839 277.4095481635929 6.232320068457866
    vertex 201.8317036059839 277.4095481635929 0.39232006845786527
  endloop
endfacet
facet normal 0.7933533402912624 0.6087614290086851 0.0
  outer loop
    vertex 201.8317036059839 277.4095481635929 6.232320068457866
    vertex 201.59332567208708 277.7202083353727 0.39232006845786527
    vertex 201.59332567208708 277.7202083353727 6.232320068457866
  endloop
endfacet
facet normal -0.7933533402912067 0.6087614290087577 0.0
  outer loop
    vertex 204.19140188344036 277.7202083353727 6.232320068457866
    vertex 203.9530239495435 277.4095481635929 0.39232006845786527
    vertex 203.9530239495435 277.4095481635929 6.232320068457866
  endloop
endfacet
facet normal -0.7933533402912067 0.6087614290087577 0.0
  outer loop
    vertex 203.9530239495435 277.4095481635929 0.39232006845786527
    vertex 204.19140188344036 277.7202083353727 6.232320068457866
    vertex 204.19140188344036 277.7202083353727 0.39232006845786527
  endloop
endfacet
facet normal -0.6087614290087409 -0.7933533402912196 0.0
  outer loop
    vertex 203.9530239495435 279.53086850715255 6.232320068457866
    vertex 203.6423637777637 279.76924644104935 0.39232006845786527
    vertex 203.9530239495435 279.53086850715255 0.39232006845786527
  endloop
endfacet
facet normal -0.6087614290087409 -0.7933533402912196 0.0
  outer loop
    vertex 203.6423637777637 279.76924644104935 0.39232006845786527
    vertex 203.9530239495435 279.53086850715255 6.232320068457866
    vertex 203.6423637777637 279.76924644104935 6.232320068457866
  endloop
endfacet
facet normal 0.38268343236514424 -0.9238795325112642 0.0
  outer loop
    vertex 202.50413521010995 279.91909707480636 6.232320068457866
    vertex 202.1423637777637 279.76924644104935 0.39232006845786527
    vertex 202.50413521010995 279.91909707480636 0.39232006845786527
  endloop
endfacet
facet normal 0.38268343236514424 -0.9238795325112642 0.0
  outer loop
    vertex 202.1423637777637 279.76924644104935 0.39232006845786527
    vertex 202.50413521010995 279.91909707480636 6.232320068457866
    vertex 202.1423637777637 279.76924644104935 6.232320068457866
  endloop
endfacet
facet normal -1.0 0.0 0.0
  outer loop
    vertex 198.89236377776376 280.9702083353727 6.232320068457866
    vertex 198.89236377776376 275.9702083353727 5.232320068457866
    vertex 198.89236377776376 275.9702083353727 6.232320068457866
  endloop
endfacet
facet normal -1.0 0.0 0.0
  outer loop
    vertex 198.89236377776376 275.9702083353727 5.232320068457866
    vertex 198.89236377776376 264.4702083353727 0.39232006845786527
    vertex 198.89236377776376 264.4702083353727 5.232320068457866
  endloop
endfacet
facet normal -1.0 0.0 0.0
  outer loop
    vertex 198.89236377776376 264.4702083353727 0.39232006845786527
    vertex 198.89236377776376 275.9702083353727 5.232320068457866
    vertex 198.89236377776376 292.4702083353727 0.39232006845786527
  endloop
endfacet
facet normal -1.0 0.0 0.0
  outer loop
    vertex 198.89236377776376 292.4702083353727 0.39232006845786527
    vertex 198.89236377776376 275.9702083353727 5.232320068457866
    vertex 198.89236377776376 280.9702083353727 5.232320068457866
  endloop
endfacet
facet normal -1.0 0.0 0.0
  outer loop
    vertex 198.89236377776376 280.9702083353727 5.232320068457866
    vertex 198.89236377776376 275.9702083353727 5.232320068457866
    vertex 198.89236377776376 280.9702083353727 6.232320068457866
  endloop
endfacet
facet normal -1.0 0.0 0.0
  outer loop
    vertex 198.89236377776376 292.4702083353727 0.39232006845786527
    vertex 198.89236377776376 280.9702083353727 5.232320068457866
    vertex 198.89236377776376 292.4702083353727 5.232320068457866
  endloop
endfacet
facet normal 0.9238795325112761 -0.38268343236511554 0.0
  outer loop
    vertex 201.59332567208708 279.2202083353727 0.39232006845786527
    vertex 201.44347503833012 278.8584369030265 6.232320068457866
    vertex 201.44347503833012 278.8584369030265 0.39232006845786527
  endloop
endfacet
facet normal 0.9238795325112761 -0.38268343236511554 0.0
  outer loop
    vertex 201.44347503833012 278.8584369030265 6.232320068457866
    vertex 201.59332567208708 279.2202083353727 0.39232006845786527
    vertex 201.59332567208708 279.2202083353727 6.232320068457866
  endloop
endfacet
facet normal 0.38268343236506647 0.9238795325112966 0.0
  outer loop
    vertex 202.14236377776373 277.17117022969603 6.232320068457866
    vertex 202.50413521010995 277.02131959593913 0.39232006845786527
    vertex 202.14236377776373 277.17117022969603 0.39232006845786527
  endloop
endfacet
facet normal 0.38268343236506647 0.9238795325112966 0.0
  outer loop
    vertex 202.50413521010995 277.02131959593913 0.39232006845786527
    vertex 202.14236377776373 277.17117022969603 6.232320068457866
    vertex 202.50413521010995 277.02131959593913 6.232320068457866
  endloop
endfacet
facet normal 0.0 1.0 0.0
  outer loop
    vertex 198.89236377776376 292.4702083353727 5.232320068457866
    vertex 206.8923637777637 292.4702083353727 0.39232006845786527
    vertex 198.89236377776376 292.4702083353727 0.39232006845786527
  endloop
endfacet
facet normal 0.0 1.0 0.0
  outer loop
    vertex 206.8923637777637 292.4702083353727 0.39232006845786527
    vertex 198.89236377776376 292.4702083353727 5.232320068457866
    vertex 206.8923637777637 292.4702083353727 5.232320068457866
  endloop
endfacet
facet normal 0.0 1.0 0.0
  outer loop
    vertex 206.8923637777637 292.4702083353727 5.232320068457866
    vertex 198.89236377776376 292.4702083353727 5.232320068457866
    vertex 202.89236377776373 292.4702083353727 5.232320068457866
  endloop
endfacet
facet normal -0.9238795325112966 -0.38268343236506647 0.0
  outer loop
    vertex 204.19140188344036 279.2202083353727 6.232320068457866
    vertex 204.3412525171973 278.8584369030265 0.39232006845786527
    vertex 204.3412525171973 278.8584369030265 6.232320068457866
  endloop
endfacet
facet normal -0.9238795325112966 -0.38268343236506647 0.0
  outer loop
    vertex 204.3412525171973 278.8584369030265 0.39232006845786527
    vertex 204.19140188344036 279.2202083353727 6.232320068457866
    vertex 204.19140188344036 279.2202083353727 0.39232006845786527
  endloop
endfacet
facet normal -0.3826834323651647 -0.9238795325112557 0.0
  outer loop
    vertex 203.6423637777637 279.76924644104935 6.232320068457866
    vertex 203.2805923454175 279.91909707480636 0.39232006845786527
    vertex 203.6423637777637 279.76924644104935 0.39232006845786527
  endloop
endfacet
facet normal -0.3826834323651647 -0.9238795325112557 0.0
  outer loop
    vertex 203.2805923454175 279.91909707480636 0.39232006845786527
    vertex 203.6423637777637 279.76924644104935 6.232320068457866
    vertex 203.2805923454175 279.91909707480636 6.232320068457866
  endloop
endfacet
endsolid Dragchain setup complete
