solid Dragchain setup complete
facet normal 0.9238795325113017 0.0 0.3826834323650537
  outer loop
    vertex 42.98829921273073 188.18099979482778 17.24999999999999
    vertex 42.838448578973804 186.1809997948275 17.611771432346213
    vertex 42.98829921273073 186.1809997948275 17.24999999999999
  endloop
endfacet
facet normal 0.9238795325113017 0.0 0.3826834323650537
  outer loop
    vertex 42.838448578973804 186.1809997948275 17.611771432346213
    vertex 42.98829921273073 188.18099979482778 17.24999999999999
    vertex 42.838448578973804 188.18099979482778 17.611771432346213
  endloop
endfacet
facet normal -6.233610119316452e-18 -5.343094387985483e-18 1.0
  outer loop
    vertex 24.287337318407573 135.18099979482741 7.0
    vertex 30.287337318407612 147.18099979482744 7.0
    vertex 24.287337318407573 183.18099979482747 7.0
  endloop
endfacet
facet normal -6.233610119316452e-18 -5.343094387985483e-18 1.0
  outer loop
    vertex 30.287337318407612 147.18099979482744 7.0
    vertex 24.287337318407573 135.18099979482741 7.0
    vertex 36.28733731840751 135.18099979482741 7.0
  endloop
endfacet
facet normal -6.233610119316452e-18 -5.343094387985483e-18 1.0
  outer loop
    vertex 30.287337318407612 147.18099979482744 7.0
    vertex 36.28733731840751 135.18099979482741 7.0
    vertex 36.28733731840751 141.18099979482744 7.0
  endloop
endfacet
facet normal -6.233610119316452e-18 -5.343094387985483e-18 1.0
  outer loop
    vertex 24.287337318407573 183.18099979482747 7.0
    vertex 30.287337318407612 177.18099979482747 7.0
    vertex 36.28733731840751 183.18099979482747 7.0
  endloop
endfacet
facet normal -6.233610119316452e-18 -5.343094387985483e-18 1.0
  outer loop
    vertex 30.287337318407612 177.18099979482747 7.0
    vertex 24.287337318407573 183.18099979482747 7.0
    vertex 30.287337318407612 147.18099979482744 7.0
  endloop
endfacet
facet normal 0.6087614290087635 0.0 0.7933533402912023
  outer loop
    vertex 57.53733731840755 186.18099979482733 16.700961894323324
    vertex 57.22667714662776 188.1809997948277 16.939339828220167
    vertex 57.22667714662776 186.18099979482733 16.939339828220167
  endloop
endfacet
facet normal 0.6087614290087635 0.0 0.7933533402912023
  outer loop
    vertex 57.22667714662776 188.1809997948277 16.939339828220167
    vertex 57.53733731840755 186.18099979482733 16.700961894323324
    vertex 57.53733731840755 188.1809997948277 16.700961894323324
  endloop
endfacet
facet normal 0.0 1.0 0.0
  outer loop
    vertex 24.287337318407573 188.1809997948275 0.0
    vertex 43.53733731840749 188.18099979482778 16.700961894323324
    vertex 78.28733731840748 188.1809997948275 0.0
  endloop
endfacet
facet normal 0.0 1.0 0.0
  outer loop
    vertex 43.53733731840749 188.18099979482778 16.700961894323324
    vertex 24.287337318407573 188.1809997948275 0.0
    vertex 24.287337318407573 188.1809997948275 30.0
  endloop
endfacet
facet normal 0.0 1.0 0.0
  outer loop
    vertex 78.28733731840748 188.1809997948275 0.0
    vertex 43.53733731840749 188.18099979482778 16.700961894323324
    vertex 43.89910875075378 188.18099979482778 16.55111126056638
  endloop
endfacet
facet normal 0.0 1.0 0.0
  outer loop
    vertex 78.28733731840748 188.1809997948275 0.0
    vertex 43.89910875075378 188.18099979482778 16.55111126056638
    vertex 44.287337318407495 188.18099979482778 16.499999999999982
  endloop
endfacet
facet normal 0.0 1.0 0.0
  outer loop
    vertex 43.53733731840749 188.18099979482778 16.700961894323324
    vertex 24.287337318407573 188.1809997948275 30.0
    vertex 43.226677146627694 188.18099979482778 16.939339828220167
  endloop
endfacet
facet normal 0.0 1.0 0.0
  outer loop
    vertex 43.226677146627694 188.18099979482778 16.939339828220167
    vertex 24.287337318407573 188.1809997948275 30.0
    vertex 42.98829921273073 188.18099979482778 17.24999999999999
  endloop
endfacet
facet normal 0.0 1.0 0.0
  outer loop
    vertex 42.98829921273073 188.18099979482778 17.24999999999999
    vertex 24.287337318407573 188.1809997948275 30.0
    vertex 42.838448578973804 188.18099979482778 17.611771432346213
  endloop
endfacet
facet normal 0.0 1.0 0.0
  outer loop
    vertex 42.838448578973804 188.18099979482778 17.611771432346213
    vertex 24.287337318407573 188.1809997948275 30.0
    vertex 42.787337318407474 188.18099979482778 18.0
  endloop
endfacet
facet normal 0.0 1.0 0.0
  outer loop
    vertex 42.787337318407474 188.18099979482778 18.0
    vertex 24.287337318407573 188.1809997948275 30.0
    vertex 42.838448578973804 188.18099979482778 18.388228567653783
  endloop
endfacet
facet normal 0.0 1.0 0.0
  outer loop
    vertex 42.838448578973804 188.18099979482778 18.388228567653783
    vertex 24.287337318407573 188.1809997948275 30.0
    vertex 42.98829921273073 188.18099979482778 18.75000000000001
  endloop
endfacet
facet normal 0.0 1.0 0.0
  outer loop
    vertex 42.98829921273073 188.18099979482778 18.75000000000001
    vertex 24.287337318407573 188.1809997948275 30.0
    vertex 43.226677146627694 188.18099979482778 19.060660171779837
  endloop
endfacet
facet normal 0.0 1.0 0.0
  outer loop
    vertex 43.226677146627694 188.18099979482778 19.060660171779837
    vertex 24.287337318407573 188.1809997948275 30.0
    vertex 43.53733731840749 188.18099979482778 19.299038105676676
  endloop
endfacet
facet normal 0.0 1.0 0.0
  outer loop
    vertex 43.53733731840749 188.18099979482778 19.299038105676676
    vertex 24.287337318407573 188.1809997948275 30.0
    vertex 43.89910875075378 188.18099979482778 19.448888739433624
  endloop
endfacet
facet normal 0.0 1.0 0.0
  outer loop
    vertex 43.89910875075378 188.18099979482778 19.448888739433624
    vertex 24.287337318407573 188.1809997948275 30.0
    vertex 44.287337318407495 188.18099979482778 19.50000000000002
  endloop
endfacet
facet normal 0.0 1.0 0.0
  outer loop
    vertex 44.287337318407495 188.18099979482778 19.50000000000002
    vertex 24.287337318407573 188.1809997948275 30.0
    vertex 58.28733731840756 188.1809997948277 19.50000000000002
  endloop
endfacet
facet normal 0.0 1.0 0.0
  outer loop
    vertex 78.28733731840748 188.1809997948275 0.0
    vertex 59.03733731840757 188.1809997948277 16.700961894323324
    vertex 78.28733731840748 188.1809997948275 30.0
  endloop
endfacet
facet normal 0.0 1.0 0.0
  outer loop
    vertex 59.03733731840757 188.1809997948277 16.700961894323324
    vertex 78.28733731840748 188.1809997948275 0.0
    vertex 58.67556588606127 188.1809997948277 16.55111126056638
  endloop
endfacet
facet normal 0.0 1.0 0.0
  outer loop
    vertex 58.67556588606127 188.1809997948277 16.55111126056638
    vertex 78.28733731840748 188.1809997948275 0.0
    vertex 58.28733731840756 188.1809997948277 16.499999999999982
  endloop
endfacet
facet normal 0.0 1.0 0.0
  outer loop
    vertex 58.28733731840756 188.1809997948277 16.499999999999982
    vertex 78.28733731840748 188.1809997948275 0.0
    vertex 44.287337318407495 188.18099979482778 16.499999999999982
  endloop
endfacet
facet normal 0.0 1.0 0.0
  outer loop
    vertex 78.28733731840748 188.1809997948275 30.0
    vertex 59.03733731840757 188.1809997948277 16.700961894323324
    vertex 59.34799749018736 188.1809997948277 16.939339828220167
  endloop
endfacet
facet normal 0.0 1.0 0.0
  outer loop
    vertex 78.28733731840748 188.1809997948275 30.0
    vertex 59.34799749018736 188.1809997948277 16.939339828220167
    vertex 59.58637542408432 188.1809997948277 17.24999999999999
  endloop
endfacet
facet normal 0.0 1.0 0.0
  outer loop
    vertex 78.28733731840748 188.1809997948275 30.0
    vertex 59.58637542408432 188.1809997948277 17.24999999999999
    vertex 59.73622605784126 188.1809997948277 17.611771432346217
  endloop
endfacet
facet normal 0.0 1.0 0.0
  outer loop
    vertex 78.28733731840748 188.1809997948275 30.0
    vertex 59.73622605784126 188.1809997948277 17.611771432346217
    vertex 59.78733731840758 188.1809997948277 18.0
  endloop
endfacet
facet normal 0.0 1.0 0.0
  outer loop
    vertex 78.28733731840748 188.1809997948275 30.0
    vertex 59.78733731840758 188.1809997948277 18.0
    vertex 59.73622605784126 188.1809997948277 18.388228567653787
  endloop
endfacet
facet normal 0.0 1.0 0.0
  outer loop
    vertex 78.28733731840748 188.1809997948275 30.0
    vertex 59.73622605784126 188.1809997948277 18.388228567653787
    vertex 59.58637542408432 188.1809997948277 18.75000000000001
  endloop
endfacet
facet normal 0.0 1.0 0.0
  outer loop
    vertex 78.28733731840748 188.1809997948275 30.0
    vertex 59.58637542408432 188.1809997948277 18.75000000000001
    vertex 59.34799749018736 188.1809997948277 19.060660171779837
  endloop
endfacet
facet normal 0.0 1.0 0.0
  outer loop
    vertex 78.28733731840748 188.1809997948275 30.0
    vertex 59.34799749018736 188.1809997948277 19.060660171779837
    vertex 59.03733731840757 188.1809997948277 19.299038105676676
  endloop
endfacet
facet normal 0.0 1.0 0.0
  outer loop
    vertex 78.28733731840748 188.1809997948275 30.0
    vertex 59.03733731840757 188.1809997948277 19.299038105676676
    vertex 58.67556588606127 188.1809997948277 19.448888739433624
  endloop
endfacet
facet normal 0.0 1.0 0.0
  outer loop
    vertex 78.28733731840748 188.1809997948275 30.0
    vertex 58.67556588606127 188.1809997948277 19.448888739433624
    vertex 58.28733731840756 188.1809997948277 19.50000000000002
  endloop
endfacet
facet normal 0.0 1.0 0.0
  outer loop
    vertex 78.28733731840748 188.1809997948275 30.0
    vertex 58.28733731840756 188.1809997948277 19.50000000000002
    vertex 24.287337318407573 188.1809997948275 30.0
  endloop
endfacet
facet normal 0.0 1.0 0.0
  outer loop
    vertex 44.67556588606121 188.18099979482778 16.55111126056638
    vertex 58.28733731840756 188.1809997948277 16.499999999999982
    vertex 44.287337318407495 188.18099979482778 16.499999999999982
  endloop
endfacet
facet normal 0.0 1.0 0.0
  outer loop
    vertex 58.28733731840756 188.1809997948277 16.499999999999982
    vertex 44.67556588606121 188.18099979482778 16.55111126056638
    vertex 57.899108750753854 188.1809997948277 16.55111126056638
  endloop
endfacet
facet normal 0.0 1.0 0.0
  outer loop
    vertex 57.899108750753854 188.1809997948277 16.55111126056638
    vertex 44.67556588606121 188.18099979482778 16.55111126056638
    vertex 45.03733731840751 188.18099979482778 16.700961894323324
  endloop
endfacet
facet normal 0.0 1.0 0.0
  outer loop
    vertex 57.899108750753854 188.1809997948277 16.55111126056638
    vertex 45.03733731840751 188.18099979482778 16.700961894323324
    vertex 57.53733731840755 188.1809997948277 16.700961894323324
  endloop
endfacet
facet normal 0.0 1.0 0.0
  outer loop
    vertex 57.53733731840755 188.1809997948277 16.700961894323324
    vertex 45.03733731840751 188.18099979482778 16.700961894323324
    vertex 45.347997490187296 188.18099979482778 16.939339828220167
  endloop
endfacet
facet normal 0.0 1.0 0.0
  outer loop
    vertex 57.53733731840755 188.1809997948277 16.700961894323324
    vertex 45.347997490187296 188.18099979482778 16.939339828220167
    vertex 57.22667714662776 188.1809997948277 16.939339828220167
  endloop
endfacet
facet normal 0.0 1.0 0.0
  outer loop
    vertex 57.22667714662776 188.1809997948277 16.939339828220167
    vertex 45.347997490187296 188.18099979482778 16.939339828220167
    vertex 45.58637542408426 188.18099979482778 17.24999999999999
  endloop
endfacet
facet normal 0.0 1.0 0.0
  outer loop
    vertex 57.22667714662776 188.1809997948277 16.939339828220167
    vertex 45.58637542408426 188.18099979482778 17.24999999999999
    vertex 56.9882992127308 188.1809997948277 17.24999999999999
  endloop
endfacet
facet normal 0.0 1.0 0.0
  outer loop
    vertex 56.9882992127308 188.1809997948277 17.24999999999999
    vertex 45.58637542408426 188.18099979482778 17.24999999999999
    vertex 45.736226057841186 188.18099979482778 17.611771432346213
  endloop
endfacet
facet normal 0.0 1.0 0.0
  outer loop
    vertex 56.9882992127308 188.1809997948277 17.24999999999999
    vertex 45.736226057841186 188.18099979482778 17.611771432346213
    vertex 56.83844857897387 188.1809997948277 17.611771432346213
  endloop
endfacet
facet normal 0.0 1.0 0.0
  outer loop
    vertex 56.83844857897387 188.1809997948277 17.611771432346213
    vertex 45.736226057841186 188.18099979482778 17.611771432346213
    vertex 45.787337318407516 188.18099979482778 18.0
  endloop
endfacet
facet normal 0.0 1.0 0.0
  outer loop
    vertex 56.83844857897387 188.1809997948277 17.611771432346213
    vertex 45.787337318407516 188.18099979482778 18.0
    vertex 56.787337318407545 188.1809997948277 18.0
  endloop
endfacet
facet normal 0.0 1.0 0.0
  outer loop
    vertex 56.787337318407545 188.1809997948277 18.0
    vertex 45.787337318407516 188.18099979482778 18.0
    vertex 45.736226057841186 188.18099979482778 18.388228567653787
  endloop
endfacet
facet normal 0.0 1.0 0.0
  outer loop
    vertex 56.787337318407545 188.1809997948277 18.0
    vertex 45.736226057841186 188.18099979482778 18.388228567653787
    vertex 56.83844857897387 188.1809997948277 18.388228567653783
  endloop
endfacet
facet normal 0.0 1.0 0.0
  outer loop
    vertex 56.83844857897387 188.1809997948277 18.388228567653783
    vertex 45.736226057841186 188.18099979482778 18.388228567653787
    vertex 56.9882992127308 188.1809997948277 18.75000000000001
  endloop
endfacet
facet normal 0.0 1.0 0.0
  outer loop
    vertex 56.9882992127308 188.1809997948277 18.75000000000001
    vertex 45.736226057841186 188.18099979482778 18.388228567653787
    vertex 45.58637542408426 188.18099979482778 18.75000000000001
  endloop
endfacet
facet normal 0.0 1.0 0.0
  outer loop
    vertex 56.9882992127308 188.1809997948277 18.75000000000001
    vertex 45.58637542408426 188.18099979482778 18.75000000000001
    vertex 45.347997490187296 188.18099979482778 19.060660171779837
  endloop
endfacet
facet normal 0.0 1.0 0.0
  outer loop
    vertex 56.9882992127308 188.1809997948277 18.75000000000001
    vertex 45.347997490187296 188.18099979482778 19.060660171779837
    vertex 57.22667714662776 188.1809997948277 19.060660171779837
  endloop
endfacet
facet normal 0.0 1.0 0.0
  outer loop
    vertex 57.22667714662776 188.1809997948277 19.060660171779837
    vertex 45.347997490187296 188.18099979482778 19.060660171779837
    vertex 45.03733731840751 188.18099979482778 19.299038105676676
  endloop
endfacet
facet normal 0.0 1.0 0.0
  outer loop
    vertex 57.22667714662776 188.1809997948277 19.060660171779837
    vertex 45.03733731840751 188.18099979482778 19.299038105676676
    vertex 57.53733731840755 188.1809997948277 19.299038105676676
  endloop
endfacet
facet normal 0.0 1.0 0.0
  outer loop
    vertex 57.53733731840755 188.1809997948277 19.299038105676676
    vertex 45.03733731840751 188.18099979482778 19.299038105676676
    vertex 44.67556588606121 188.18099979482778 19.448888739433624
  endloop
endfacet
facet normal 0.0 1.0 0.0
  outer loop
    vertex 57.53733731840755 188.1809997948277 19.299038105676676
    vertex 44.67556588606121 188.18099979482778 19.448888739433624
    vertex 57.899108750753854 188.1809997948277 19.448888739433624
  endloop
endfacet
facet normal 0.0 1.0 0.0
  outer loop
    vertex 57.899108750753854 188.1809997948277 19.448888739433624
    vertex 44.67556588606121 188.18099979482778 19.448888739433624
    vertex 44.287337318407495 188.18099979482778 19.50000000000002
  endloop
endfacet
facet normal 0.0 1.0 0.0
  outer loop
    vertex 57.899108750753854 188.1809997948277 19.448888739433624
    vertex 44.287337318407495 188.18099979482778 19.50000000000002
    vertex 58.28733731840756 188.1809997948277 19.50000000000002
  endloop
endfacet
facet normal 0.6087614290087635 0.0 0.7933533402912023
  outer loop
    vertex 43.53733731840749 186.1809997948275 16.700961894323324
    vertex 43.226677146627694 188.18099979482778 16.939339828220167
    vertex 43.226677146627694 186.1809997948275 16.939339828220167
  endloop
endfacet
facet normal 0.6087614290087635 0.0 0.7933533402912023
  outer loop
    vertex 43.226677146627694 188.18099979482778 16.939339828220167
    vertex 43.53733731840749 186.1809997948275 16.700961894323324
    vertex 43.53733731840749 188.18099979482778 16.700961894323324
  endloop
endfacet
facet normal 0.9914448613738339 0.0 -0.13052619221987377
  outer loop
    vertex 42.787337318407474 188.18099979482778 18.0
    vertex 42.838448578973804 186.1809997948275 18.388228567653783
    vertex 42.787337318407474 186.1809997948275 18.0
  endloop
endfacet
facet normal 0.9914448613738339 0.0 -0.13052619221987377
  outer loop
    vertex 42.838448578973804 186.1809997948275 18.388228567653783
    vertex 42.787337318407474 188.18099979482778 18.0
    vertex 42.838448578973804 188.18099979482778 18.388228567653783
  endloop
endfacet
facet normal -1.0 0.0 0.0
  outer loop
    vertex 72.28733731840762 177.18099979482747 7.0
    vertex 72.28733731840762 147.18099979482744 0.0
    vertex 72.28733731840762 147.18099979482744 7.0
  endloop
endfacet
facet normal -1.0 0.0 0.0
  outer loop
    vertex 72.28733731840762 147.18099979482744 0.0
    vertex 72.28733731840762 177.18099979482747 7.0
    vertex 72.28733731840762 177.18099979482747 0.0
  endloop
endfacet
facet normal 1.0 0.0 0.0
  outer loop
    vertex 30.287337318407612 177.18099979482747 0.0
    vertex 30.287337318407612 147.18099979482744 7.0
    vertex 30.287337318407612 147.18099979482744 0.0
  endloop
endfacet
facet normal 1.0 0.0 0.0
  outer loop
    vertex 30.287337318407612 147.18099979482744 7.0
    vertex 30.287337318407612 177.18099979482747 0.0
    vertex 30.287337318407612 177.18099979482747 7.0
  endloop
endfacet
facet normal -0.0 -1.0 -0.0
  outer loop
    vertex 78.28733731840748 135.18099979482744 7.0
    vertex 66.28733731840755 135.18099979482744 0.0
    vertex 78.28733731840748 135.18099979482744 0.0
  endloop
endfacet
facet normal -0.0 -1.0 -0.0
  outer loop
    vertex 66.28733731840755 135.18099979482744 0.0
    vertex 78.28733731840748 135.18099979482744 7.0
    vertex 66.28733731840755 135.18099979482744 7.0
  endloop
endfacet
facet normal 0.38268343236502184 0.0 -0.9238795325113149
  outer loop
    vertex 57.899108750753854 188.1809997948277 19.448888739433624
    vertex 57.53733731840755 186.18099979482733 19.299038105676676
    vertex 57.53733731840755 188.1809997948277 19.299038105676676
  endloop
endfacet
facet normal 0.38268343236502184 0.0 -0.9238795325113149
  outer loop
    vertex 57.53733731840755 186.18099979482733 19.299038105676676
    vertex 57.899108750753854 188.1809997948277 19.448888739433624
    vertex 57.899108750753854 186.18099979482733 19.448888739433624
  endloop
endfacet
facet normal -0.7071067811865422 -0.7071067811865528 0.0
  outer loop
    vertex 72.28733731840762 177.18099979482747 7.0
    vertex 66.28733731840755 183.18099979482747 0.0
    vertex 72.28733731840762 177.18099979482747 0.0
  endloop
endfacet
facet normal -0.7071067811865422 -0.7071067811865528 0.0
  outer loop
    vertex 66.28733731840755 183.18099979482747 0.0
    vertex 72.28733731840762 177.18099979482747 7.0
    vertex 66.28733731840755 183.18099979482747 7.0
  endloop
endfacet
facet normal -1.0 0.0 0.0
  outer loop
    vertex 47.28733731840754 186.1809997948275 21.0
    vertex 47.28733731840754 183.18099979482747 15.0
    vertex 47.28733731840754 183.18099979482747 21.0
  endloop
endfacet
facet normal -1.0 0.0 0.0
  outer loop
    vertex 47.28733731840754 183.18099979482747 15.0
    vertex 47.28733731840754 186.1809997948275 21.0
    vertex 47.28733731840754 186.1809997948275 15.0
  endloop
endfacet
facet normal -1.0 0.0 0.0
  outer loop
    vertex 24.287337318407573 135.18099979482741 7.0
    vertex 24.28733731840753 137.18099979482744 5.5
    vertex 24.287337318407573 135.18099979482741 0.0
  endloop
endfacet
facet normal -1.0 0.0 0.0
  outer loop
    vertex 24.28733731840753 137.18099979482744 5.5
    vertex 24.287337318407573 135.18099979482741 7.0
    vertex 24.287337318407573 183.18099979482747 7.0
  endloop
endfacet
facet normal -1.0 0.0 0.0
  outer loop
    vertex 24.28733731840753 137.18099979482744 5.5
    vertex 24.287337318407573 183.18099979482747 7.0
    vertex 24.28733731840753 139.18099979482744 5.5
  endloop
endfacet
facet normal -1.0 0.0 0.0
  outer loop
    vertex 24.28733731840753 139.18099979482744 5.5
    vertex 24.287337318407573 183.18099979482747 7.0
    vertex 24.28733731840753 139.18099979482744 1.5
  endloop
endfacet
facet normal -1.0 0.0 0.0
  outer loop
    vertex 24.287337318407573 188.1809997948275 30.0
    vertex 24.287337318407573 183.18099979482747 7.0
    vertex 24.287337318407573 183.18099979482747 30.0
  endloop
endfacet
facet normal -1.0 0.0 0.0
  outer loop
    vertex 24.287337318407573 135.18099979482741 0.0
    vertex 24.28733731840753 137.18099979482744 1.5
    vertex 24.287337318407573 188.1809997948275 0.0
  endloop
endfacet
facet normal -1.0 0.0 0.0
  outer loop
    vertex 24.28733731840753 137.18099979482744 1.5
    vertex 24.287337318407573 135.18099979482741 0.0
    vertex 24.28733731840753 137.18099979482744 5.5
  endloop
endfacet
facet normal -1.0 0.0 0.0
  outer loop
    vertex 24.287337318407573 188.1809997948275 0.0
    vertex 24.28733731840753 137.18099979482744 1.5
    vertex 24.28733731840753 139.18099979482744 1.5
  endloop
endfacet
facet normal -1.0 0.0 0.0
  outer loop
    vertex 24.287337318407573 188.1809997948275 0.0
    vertex 24.28733731840753 139.18099979482744 1.5
    vertex 24.287337318407573 183.18099979482747 7.0
  endloop
endfacet
facet normal -1.0 0.0 0.0
  outer loop
    vertex 24.287337318407573 188.1809997948275 0.0
    vertex 24.287337318407573 183.18099979482747 7.0
    vertex 24.287337318407573 188.1809997948275 30.0
  endloop
endfacet
facet normal 1.0 0.0 0.0
  outer loop
    vertex 78.28733731840748 135.18099979482744 0.0
    vertex 78.28733731840738 137.18099979482744 1.5
    vertex 78.28733731840748 135.18099979482744 7.0
  endloop
endfacet
facet normal 1.0 0.0 0.0
  outer loop
    vertex 78.28733731840738 137.18099979482744 1.5
    vertex 78.28733731840748 135.18099979482744 0.0
    vertex 78.28733731840748 188.1809997948275 0.0
  endloop
endfacet
facet normal 1.0 0.0 0.0
  outer loop
    vertex 78.28733731840738 137.18099979482744 1.5
    vertex 78.28733731840748 188.1809997948275 0.0
    vertex 78.28733731840738 139.18099979482744 1.5
  endloop
endfacet
facet normal 1.0 0.0 0.0
  outer loop
    vertex 78.28733731840738 139.18099979482744 1.5
    vertex 78.28733731840748 188.1809997948275 0.0
    vertex 78.28733731840738 139.18099979482744 5.500000000000001
  endloop
endfacet
facet normal 1.0 0.0 0.0
  outer loop
    vertex 78.28733731840738 139.18099979482744 5.500000000000001
    vertex 78.28733731840748 188.1809997948275 0.0
    vertex 78.28733731840748 183.18099979482747 7.0
  endloop
endfacet
facet normal 1.0 0.0 0.0
  outer loop
    vertex 78.28733731840748 183.18099979482747 7.0
    vertex 78.28733731840748 188.1809997948275 0.0
    vertex 78.28733731840748 183.18099979482747 30.0
  endloop
endfacet
facet normal 1.0 0.0 0.0
  outer loop
    vertex 78.28733731840748 183.18099979482747 30.0
    vertex 78.28733731840748 188.1809997948275 0.0
    vertex 78.28733731840748 188.1809997948275 30.0
  endloop
endfacet
facet normal 1.0 0.0 0.0
  outer loop
    vertex 78.28733731840748 135.18099979482744 7.0
    vertex 78.28733731840738 137.18099979482744 5.500000000000001
    vertex 78.28733731840748 183.18099979482747 7.0
  endloop
endfacet
facet normal 1.0 0.0 0.0
  outer loop
    vertex 78.28733731840738 137.18099979482744 5.500000000000001
    vertex 78.28733731840748 135.18099979482744 7.0
    vertex 78.28733731840738 137.18099979482744 1.5
  endloop
endfacet
facet normal 1.0 0.0 0.0
  outer loop
    vertex 78.28733731840748 183.18099979482747 7.0
    vertex 78.28733731840738 137.18099979482744 5.500000000000001
    vertex 78.28733731840738 139.18099979482744 5.500000000000001
  endloop
endfacet
facet normal 0.6087614290087636 0.0 -0.7933533402912023
  outer loop
    vertex 57.53733731840755 188.1809997948277 19.299038105676676
    vertex 57.22667714662776 186.18099979482733 19.060660171779837
    vertex 57.22667714662776 188.1809997948277 19.060660171779837
  endloop
endfacet
facet normal 0.6087614290087636 0.0 -0.7933533402912023
  outer loop
    vertex 57.22667714662776 186.18099979482733 19.060660171779837
    vertex 57.53733731840755 188.1809997948277 19.299038105676676
    vertex 57.53733731840755 186.18099979482733 19.299038105676676
  endloop
endfacet
facet normal -0.7933533402910847 0.0 0.6087614290089166
  outer loop
    vertex 59.58637542408432 188.1809997948277 17.24999999999999
    vertex 59.34799749018736 186.18099979482733 16.939339828220167
    vertex 59.58637542408432 186.18099979482733 17.24999999999999
  endloop
endfacet
facet normal -0.7933533402910847 0.0 0.6087614290089166
  outer loop
    vertex 59.34799749018736 186.18099979482733 16.939339828220167
    vertex 59.58637542408432 188.1809997948277 17.24999999999999
    vertex 59.34799749018736 188.1809997948277 16.939339828220167
  endloop
endfacet
facet normal -1.0 0.0 0.0
  outer loop
    vertex 66.28733731840755 135.18099979482744 7.0
    vertex 66.28733731840755 137.18099979482744 5.500000000000001
    vertex 66.28733731840755 135.18099979482744 0.0
  endloop
endfacet
facet normal -1.0 0.0 0.0
  outer loop
    vertex 66.28733731840755 137.18099979482744 5.500000000000001
    vertex 66.28733731840755 135.18099979482744 7.0
    vertex 66.28733731840755 141.18099979482744 7.0
  endloop
endfacet
facet normal -1.0 0.0 0.0
  outer loop
    vertex 66.28733731840755 137.18099979482744 5.500000000000001
    vertex 66.28733731840755 141.18099979482744 7.0
    vertex 66.28733731840755 139.18099979482744 5.500000000000001
  endloop
endfacet
facet normal -1.0 0.0 0.0
  outer loop
    vertex 66.28733731840755 139.18099979482744 5.500000000000001
    vertex 66.28733731840755 141.18099979482744 7.0
    vertex 66.28733731840755 139.18099979482744 1.5
  endloop
endfacet
facet normal -1.0 0.0 0.0
  outer loop
    vertex 66.28733731840755 135.18099979482744 0.0
    vertex 66.28733731840755 137.18099979482744 1.5
    vertex 66.28733731840755 141.18099979482744 0.0
  endloop
endfacet
facet normal -1.0 0.0 0.0
  outer loop
    vertex 66.28733731840755 137.18099979482744 1.5
    vertex 66.28733731840755 135.18099979482744 0.0
    vertex 66.28733731840755 137.18099979482744 5.500000000000001
  endloop
endfacet
facet normal -1.0 0.0 0.0
  outer loop
    vertex 66.28733731840755 141.18099979482744 0.0
    vertex 66.28733731840755 137.18099979482744 1.5
    vertex 66.28733731840755 139.18099979482744 1.5
  endloop
endfacet
facet normal -1.0 0.0 0.0
  outer loop
    vertex 66.28733731840755 141.18099979482744 0.0
    vertex 66.28733731840755 139.18099979482744 1.5
    vertex 66.28733731840755 141.18099979482744 7.0
  endloop
endfacet
facet normal 0.7933533402910847 0.0 0.6087614290089166
  outer loop
    vertex 43.226677146627694 188.18099979482778 16.939339828220167
    vertex 42.98829921273073 186.1809997948275 17.24999999999999
    vertex 43.226677146627694 186.1809997948275 16.939339828220167
  endloop
endfacet
facet normal 0.7933533402910847 0.0 0.6087614290089166
  outer loop
    vertex 42.98829921273073 186.1809997948275 17.24999999999999
    vertex 43.226677146627694 188.18099979482778 16.939339828220167
    vertex 42.98829921273073 188.18099979482778 17.24999999999999
  endloop
endfacet
facet normal 0.7071067811865529 0.7071067811865422 0.0
  outer loop
    vertex 30.287337318407612 147.18099979482744 0.0
    vertex 36.28733731840751 141.18099979482744 7.0
    vertex 36.28733731840751 141.18099979482744 0.0
  endloop
endfacet
facet normal 0.7071067811865529 0.7071067811865422 0.0
  outer loop
    vertex 36.28733731840751 141.18099979482744 7.0
    vertex 30.287337318407612 147.18099979482744 0.0
    vertex 30.287337318407612 147.18099979482744 7.0
  endloop
endfacet
facet normal -0.0 -1.0 -0.0
  outer loop
    vertex 36.28733731840751 135.18099979482741 7.0
    vertex 24.287337318407573 135.18099979482741 0.0
    vertex 36.28733731840751 135.18099979482741 0.0
  endloop
endfacet
facet normal -0.0 -1.0 -0.0
  outer loop
    vertex 24.287337318407573 135.18099979482741 0.0
    vertex 36.28733731840751 135.18099979482741 7.0
    vertex 24.287337318407573 135.18099979482741 7.0
  endloop
endfacet
facet normal -0.7933533402910847 0.0 -0.6087614290089166
  outer loop
    vertex 59.34799749018736 188.1809997948277 19.060660171779837
    vertex 59.58637542408432 186.18099979482733 18.75000000000001
    vertex 59.34799749018736 186.18099979482733 19.060660171779837
  endloop
endfacet
facet normal -0.7933533402910847 0.0 -0.6087614290089166
  outer loop
    vertex 59.58637542408432 186.18099979482733 18.75000000000001
    vertex 59.34799749018736 188.1809997948277 19.060660171779837
    vertex 59.58637542408432 188.1809997948277 18.75000000000001
  endloop
endfacet
facet normal -0.13052619222007503 0.0 -0.9914448613738075
  outer loop
    vertex 58.67556588606127 188.1809997948277 19.448888739433624
    vertex 58.28733731840756 186.18099979482733 19.50000000000002
    vertex 58.28733731840756 188.1809997948277 19.50000000000002
  endloop
endfacet
facet normal -0.13052619222007503 0.0 -0.9914448613738075
  outer loop
    vertex 58.28733731840756 186.18099979482733 19.50000000000002
    vertex 58.67556588606127 188.1809997948277 19.448888739433624
    vertex 58.67556588606127 186.18099979482733 19.448888739433624
  endloop
endfacet
facet normal 0.7933533402910847 0.0 -0.6087614290089166
  outer loop
    vertex 42.98829921273073 188.18099979482778 18.75000000000001
    vertex 43.226677146627694 186.1809997948275 19.060660171779837
    vertex 42.98829921273073 186.1809997948275 18.75000000000001
  endloop
endfacet
facet normal 0.7933533402910847 0.0 -0.6087614290089166
  outer loop
    vertex 43.226677146627694 186.1809997948275 19.060660171779837
    vertex 42.98829921273073 188.18099979482778 18.75000000000001
    vertex 43.226677146627694 188.18099979482778 19.060660171779837
  endloop
endfacet
facet normal -0.6087614290087635 0.0 -0.7933533402912023
  outer loop
    vertex 45.347997490187296 188.18099979482778 19.060660171779837
    vertex 45.03733731840751 186.1809997948275 19.299038105676676
    vertex 45.03733731840751 188.18099979482778 19.299038105676676
  endloop
endfacet
facet normal -0.6087614290087635 0.0 -0.7933533402912023
  outer loop
    vertex 45.03733731840751 186.1809997948275 19.299038105676676
    vertex 45.347997490187296 188.18099979482778 19.060660171779837
    vertex 45.347997490187296 186.1809997948275 19.060660171779837
  endloop
endfacet
facet normal -0.9914448613738339 0.0 -0.13052619221987283
  outer loop
    vertex 59.73622605784126 188.1809997948277 18.388228567653787
    vertex 59.78733731840758 186.18099979482733 18.0
    vertex 59.73622605784126 186.18099979482733 18.388228567653787
  endloop
endfacet
facet normal -0.9914448613738339 0.0 -0.13052619221987283
  outer loop
    vertex 59.78733731840758 186.18099979482733 18.0
    vertex 59.73622605784126 188.1809997948277 18.388228567653787
    vertex 59.78733731840758 188.1809997948277 18.0
  endloop
endfacet
facet normal -0.7933533402910847 0.0 -0.6087614290089166
  outer loop
    vertex 45.347997490187296 188.18099979482778 19.060660171779837
    vertex 45.58637542408426 186.1809997948275 18.75000000000001
    vertex 45.347997490187296 186.1809997948275 19.060660171779837
  endloop
endfacet
facet normal -0.7933533402910847 0.0 -0.6087614290089166
  outer loop
    vertex 45.58637542408426 186.1809997948275 18.75000000000001
    vertex 45.347997490187296 188.18099979482778 19.060660171779837
    vertex 45.58637542408426 188.18099979482778 18.75000000000001
  endloop
endfacet
facet normal 0.0 0.0 -1.0
  outer loop
    vertex 61.2873373184076 186.18099979482733 21.0
    vertex 55.28733731840752 183.18099979482747 21.0
    vertex 55.28733731840752 186.18099979482733 21.0
  endloop
endfacet
facet normal 0.0 0.0 -1.0
  outer loop
    vertex 55.28733731840752 183.18099979482747 21.0
    vertex 61.2873373184076 186.18099979482733 21.0
    vertex 61.2873373184076 183.18099979482747 21.0
  endloop
endfacet
facet normal -0.13052619222007503 0.0 -0.9914448613738075
  outer loop
    vertex 44.67556588606121 188.18099979482778 19.448888739433624
    vertex 44.287337318407495 186.1809997948275 19.50000000000002
    vertex 44.287337318407495 188.18099979482778 19.50000000000002
  endloop
endfacet
facet normal -0.13052619222007503 0.0 -0.9914448613738075
  outer loop
    vertex 44.287337318407495 186.1809997948275 19.50000000000002
    vertex 44.67556588606121 188.18099979482778 19.448888739433624
    vertex 44.67556588606121 186.1809997948275 19.448888739433624
  endloop
endfacet
facet normal -0.9914448613738339 0.0 -0.13052619221987283
  outer loop
    vertex 45.736226057841186 188.18099979482778 18.388228567653787
    vertex 45.787337318407516 186.1809997948275 18.0
    vertex 45.736226057841186 186.1809997948275 18.388228567653787
  endloop
endfacet
facet normal -0.9914448613738339 0.0 -0.13052619221987283
  outer loop
    vertex 45.787337318407516 186.1809997948275 18.0
    vertex 45.736226057841186 188.18099979482778 18.388228567653787
    vertex 45.787337318407516 188.18099979482778 18.0
  endloop
endfacet
facet normal -0.9238795325113017 0.0 0.3826834323650537
  outer loop
    vertex 45.736226057841186 188.18099979482778 17.611771432346213
    vertex 45.58637542408426 186.1809997948275 17.24999999999999
    vertex 45.736226057841186 186.1809997948275 17.611771432346213
  endloop
endfacet
facet normal -0.9238795325113017 0.0 0.3826834323650537
  outer loop
    vertex 45.58637542408426 186.1809997948275 17.24999999999999
    vertex 45.736226057841186 188.18099979482778 17.611771432346213
    vertex 45.58637542408426 188.18099979482778 17.24999999999999
  endloop
endfacet
facet normal 0.0 -1.0 0.0
  outer loop
    vertex 61.2873373184076 186.18099979482733 15.0
    vertex 59.03733731840757 186.18099979482733 16.700961894323324
    vertex 55.28733731840752 186.18099979482733 15.0
  endloop
endfacet
facet normal 0.0 -1.0 0.0
  outer loop
    vertex 59.03733731840757 186.18099979482733 16.700961894323324
    vertex 61.2873373184076 186.18099979482733 15.0
    vertex 59.34799749018736 186.18099979482733 16.939339828220167
  endloop
endfacet
facet normal 0.0 -1.0 0.0
  outer loop
    vertex 59.34799749018736 186.18099979482733 16.939339828220167
    vertex 61.2873373184076 186.18099979482733 15.0
    vertex 59.58637542408432 186.18099979482733 17.24999999999999
  endloop
endfacet
facet normal 0.0 -1.0 0.0
  outer loop
    vertex 59.58637542408432 186.18099979482733 17.24999999999999
    vertex 61.2873373184076 186.18099979482733 15.0
    vertex 61.2873373184076 186.18099979482733 21.0
  endloop
endfacet
facet normal 0.0 -1.0 0.0
  outer loop
    vertex 55.28733731840752 186.18099979482733 15.0
    vertex 59.03733731840757 186.18099979482733 16.700961894323324
    vertex 58.67556588606127 186.18099979482733 16.55111126056638
  endloop
endfacet
facet normal 0.0 -1.0 0.0
  outer loop
    vertex 55.28733731840752 186.18099979482733 15.0
    vertex 58.67556588606127 186.18099979482733 16.55111126056638
    vertex 58.28733731840756 186.18099979482733 16.499999999999982
  endloop
endfacet
facet normal 0.0 -1.0 0.0
  outer loop
    vertex 59.58637542408432 186.18099979482733 17.24999999999999
    vertex 61.2873373184076 186.18099979482733 21.0
    vertex 59.73622605784126 186.18099979482733 17.611771432346217
  endloop
endfacet
facet normal 0.0 -1.0 0.0
  outer loop
    vertex 59.73622605784126 186.18099979482733 17.611771432346217
    vertex 61.2873373184076 186.18099979482733 21.0
    vertex 59.78733731840758 186.18099979482733 18.0
  endloop
endfacet
facet normal 0.0 -1.0 0.0
  outer loop
    vertex 59.78733731840758 186.18099979482733 18.0
    vertex 61.2873373184076 186.18099979482733 21.0
    vertex 59.73622605784126 186.18099979482733 18.388228567653787
  endloop
endfacet
facet normal 0.0 -1.0 0.0
  outer loop
    vertex 59.73622605784126 186.18099979482733 18.388228567653787
    vertex 61.2873373184076 186.18099979482733 21.0
    vertex 59.58637542408432 186.18099979482733 18.75000000000001
  endloop
endfacet
facet normal 0.0 -1.0 0.0
  outer loop
    vertex 59.58637542408432 186.18099979482733 18.75000000000001
    vertex 61.2873373184076 186.18099979482733 21.0
    vertex 59.34799749018736 186.18099979482733 19.060660171779837
  endloop
endfacet
facet normal 0.0 -1.0 0.0
  outer loop
    vertex 59.34799749018736 186.18099979482733 19.060660171779837
    vertex 61.2873373184076 186.18099979482733 21.0
    vertex 59.03733731840757 186.18099979482733 19.299038105676676
  endloop
endfacet
facet normal 0.0 -1.0 0.0
  outer loop
    vertex 59.03733731840757 186.18099979482733 19.299038105676676
    vertex 61.2873373184076 186.18099979482733 21.0
    vertex 58.67556588606127 186.18099979482733 19.448888739433624
  endloop
endfacet
facet normal 0.0 -1.0 0.0
  outer loop
    vertex 58.67556588606127 186.18099979482733 19.448888739433624
    vertex 61.2873373184076 186.18099979482733 21.0
    vertex 58.28733731840756 186.18099979482733 19.50000000000002
  endloop
endfacet
facet normal 0.0 -1.0 0.0
  outer loop
    vertex 55.28733731840752 186.18099979482733 15.0
    vertex 56.9882992127308 186.18099979482733 17.24999999999999
    vertex 55.28733731840752 186.18099979482733 21.0
  endloop
endfacet
facet normal 0.0 -1.0 0.0
  outer loop
    vertex 56.9882992127308 186.18099979482733 17.24999999999999
    vertex 55.28733731840752 186.18099979482733 15.0
    vertex 57.22667714662776 186.18099979482733 16.939339828220167
  endloop
endfacet
facet normal 0.0 -1.0 0.0
  outer loop
    vertex 57.22667714662776 186.18099979482733 16.939339828220167
    vertex 55.28733731840752 186.18099979482733 15.0
    vertex 57.53733731840755 186.18099979482733 16.700961894323324
  endloop
endfacet
facet normal 0.0 -1.0 0.0
  outer loop
    vertex 57.53733731840755 186.18099979482733 16.700961894323324
    vertex 55.28733731840752 186.18099979482733 15.0
    vertex 57.899108750753854 186.18099979482733 16.55111126056638
  endloop
endfacet
facet normal 0.0 -1.0 0.0
  outer loop
    vertex 57.899108750753854 186.18099979482733 16.55111126056638
    vertex 55.28733731840752 186.18099979482733 15.0
    vertex 58.28733731840756 186.18099979482733 16.499999999999982
  endloop
endfacet
facet normal 0.0 -1.0 0.0
  outer loop
    vertex 55.28733731840752 186.18099979482733 21.0
    vertex 56.9882992127308 186.18099979482733 17.24999999999999
    vertex 56.83844857897387 186.18099979482733 17.611771432346213
  endloop
endfacet
facet normal 0.0 -1.0 0.0
  outer loop
    vertex 55.28733731840752 186.18099979482733 21.0
    vertex 56.83844857897387 186.18099979482733 17.611771432346213
    vertex 56.787337318407545 186.18099979482733 18.0
  endloop
endfacet
facet normal 0.0 -1.0 0.0
  outer loop
    vertex 55.28733731840752 186.18099979482733 21.0
    vertex 56.787337318407545 186.18099979482733 18.0
    vertex 56.83844857897387 186.18099979482733 18.388228567653783
  endloop
endfacet
facet normal 0.0 -1.0 0.0
  outer loop
    vertex 55.28733731840752 186.18099979482733 21.0
    vertex 56.83844857897387 186.18099979482733 18.388228567653783
    vertex 56.9882992127308 186.18099979482733 18.75000000000001
  endloop
endfacet
facet normal 0.0 -1.0 0.0
  outer loop
    vertex 55.28733731840752 186.18099979482733 21.0
    vertex 56.9882992127308 186.18099979482733 18.75000000000001
    vertex 57.22667714662776 186.18099979482733 19.060660171779837
  endloop
endfacet
facet normal 0.0 -1.0 0.0
  outer loop
    vertex 55.28733731840752 186.18099979482733 21.0
    vertex 57.22667714662776 186.18099979482733 19.060660171779837
    vertex 57.53733731840755 186.18099979482733 19.299038105676676
  endloop
endfacet
facet normal 0.0 -1.0 0.0
  outer loop
    vertex 55.28733731840752 186.18099979482733 21.0
    vertex 57.53733731840755 186.18099979482733 19.299038105676676
    vertex 57.899108750753854 186.18099979482733 19.448888739433624
  endloop
endfacet
facet normal 0.0 -1.0 0.0
  outer loop
    vertex 55.28733731840752 186.18099979482733 21.0
    vertex 57.899108750753854 186.18099979482733 19.448888739433624
    vertex 58.28733731840756 186.18099979482733 19.50000000000002
  endloop
endfacet
facet normal 0.0 -1.0 0.0
  outer loop
    vertex 55.28733731840752 186.18099979482733 21.0
    vertex 58.28733731840756 186.18099979482733 19.50000000000002
    vertex 61.2873373184076 186.18099979482733 21.0
  endloop
endfacet
facet normal -1.0 0.0 0.0
  outer loop
    vertex 61.2873373184076 186.18099979482733 21.0
    vertex 61.2873373184076 183.18099979482747 15.0
    vertex 61.2873373184076 183.18099979482747 21.0
  endloop
endfacet
facet normal -1.0 0.0 0.0
  outer loop
    vertex 61.2873373184076 183.18099979482747 15.0
    vertex 61.2873373184076 186.18099979482733 21.0
    vertex 61.2873373184076 186.18099979482733 15.0
  endloop
endfacet
facet normal -0.6087614290087635 0.0 -0.7933533402912023
  outer loop
    vertex 59.34799749018736 188.1809997948277 19.060660171779837
    vertex 59.03733731840757 186.18099979482733 19.299038105676676
    vertex 59.03733731840757 188.1809997948277 19.299038105676676
  endloop
endfacet
facet normal -0.6087614290087635 0.0 -0.7933533402912023
  outer loop
    vertex 59.03733731840757 186.18099979482733 19.299038105676676
    vertex 59.34799749018736 188.1809997948277 19.060660171779837
    vertex 59.34799749018736 186.18099979482733 19.060660171779837
  endloop
endfacet
facet normal -0.38268343236502184 0.0 0.9238795325113149
  outer loop
    vertex 45.03733731840751 186.1809997948275 16.700961894323324
    vertex 44.67556588606121 188.18099979482778 16.55111126056638
    vertex 44.67556588606121 186.1809997948275 16.55111126056638
  endloop
endfacet
facet normal -0.38268343236502184 0.0 0.9238795325113149
  outer loop
    vertex 44.67556588606121 188.18099979482778 16.55111126056638
    vertex 45.03733731840751 186.1809997948275 16.700961894323324
    vertex 45.03733731840751 188.18099979482778 16.700961894323324
  endloop
endfacet
facet normal -0.7933533402910847 0.0 0.6087614290089166
  outer loop
    vertex 45.58637542408426 188.18099979482778 17.24999999999999
    vertex 45.347997490187296 186.1809997948275 16.939339828220167
    vertex 45.58637542408426 186.1809997948275 17.24999999999999
  endloop
endfacet
facet normal -0.7933533402910847 0.0 0.6087614290089166
  outer loop
    vertex 45.347997490187296 186.1809997948275 16.939339828220167
    vertex 45.58637542408426 188.18099979482778 17.24999999999999
    vertex 45.347997490187296 188.18099979482778 16.939339828220167
  endloop
endfacet
facet normal 0.7071067811865528 -0.7071067811865422 0.0
  outer loop
    vertex 36.28733731840751 183.18099979482747 0.0
    vertex 30.287337318407612 177.18099979482747 7.0
    vertex 30.287337318407612 177.18099979482747 0.0
  endloop
endfacet
facet normal 0.7071067811865528 -0.7071067811865422 0.0
  outer loop
    vertex 30.287337318407612 177.18099979482747 7.0
    vertex 36.28733731840751 183.18099979482747 0.0
    vertex 36.28733731840751 183.18099979482747 7.0
  endloop
endfacet
facet normal 0.0 0.0 1.0
  outer loop
    vertex 78.28733731840748 135.18099979482744 7.0
    vertex 66.28733731840755 141.18099979482744 7.0
    vertex 66.28733731840755 135.18099979482744 7.0
  endloop
endfacet
facet normal 0.0 0.0 1.0
  outer loop
    vertex 66.28733731840755 141.18099979482744 7.0
    vertex 78.28733731840748 135.18099979482744 7.0
    vertex 72.28733731840762 147.18099979482744 7.0
  endloop
endfacet
facet normal 0.0 0.0 1.0
  outer loop
    vertex 72.28733731840762 147.18099979482744 7.0
    vertex 78.28733731840748 135.18099979482744 7.0
    vertex 72.28733731840762 177.18099979482747 7.0
  endloop
endfacet
facet normal 0.0 0.0 1.0
  outer loop
    vertex 72.28733731840762 177.18099979482747 7.0
    vertex 78.28733731840748 183.18099979482747 7.0
    vertex 66.28733731840755 183.18099979482747 7.0
  endloop
endfacet
facet normal 0.0 0.0 1.0
  outer loop
    vertex 78.28733731840748 183.18099979482747 7.0
    vertex 72.28733731840762 177.18099979482747 7.0
    vertex 78.28733731840748 135.18099979482744 7.0
  endloop
endfacet
facet normal -3.417738622161202e-19 3.487865008577031e-19 -1.0
  outer loop
    vertex 24.287337318407573 188.1809997948275 0.0
    vertex 30.287337318407612 177.18099979482747 0.0
    vertex 24.287337318407573 135.18099979482741 0.0
  endloop
endfacet
facet normal -3.417738622161202e-19 3.487865008577031e-19 -1.0
  outer loop
    vertex 30.287337318407612 177.18099979482747 0.0
    vertex 24.287337318407573 188.1809997948275 0.0
    vertex 36.28733731840751 183.18099979482747 0.0
  endloop
endfacet
facet normal -3.417738622161202e-19 3.487865008577031e-19 -1.0
  outer loop
    vertex 36.28733731840751 183.18099979482747 0.0
    vertex 24.287337318407573 188.1809997948275 0.0
    vertex 78.28733731840748 188.1809997948275 0.0
  endloop
endfacet
facet normal -3.417738622161202e-19 3.487865008577031e-19 -1.0
  outer loop
    vertex 36.28733731840751 183.18099979482747 0.0
    vertex 78.28733731840748 188.1809997948275 0.0
    vertex 66.28733731840755 183.18099979482747 0.0
  endloop
endfacet
facet normal -3.417738622161202e-19 3.487865008577031e-19 -1.0
  outer loop
    vertex 66.28733731840755 183.18099979482747 0.0
    vertex 78.28733731840748 188.1809997948275 0.0
    vertex 72.28733731840762 177.18099979482747 0.0
  endloop
endfacet
facet normal -3.417738622161202e-19 3.487865008577031e-19 -1.0
  outer loop
    vertex 72.28733731840762 177.18099979482747 0.0
    vertex 78.28733731840748 188.1809997948275 0.0
    vertex 72.28733731840762 147.18099979482744 0.0
  endloop
endfacet
facet normal -3.417738622161202e-19 3.487865008577031e-19 -1.0
  outer loop
    vertex 72.28733731840762 147.18099979482744 0.0
    vertex 66.28733731840755 135.18099979482744 0.0
    vertex 66.28733731840755 141.18099979482744 0.0
  endloop
endfacet
facet normal -3.417738622161202e-19 3.487865008577031e-19 -1.0
  outer loop
    vertex 66.28733731840755 135.18099979482744 0.0
    vertex 72.28733731840762 147.18099979482744 0.0
    vertex 78.28733731840748 135.18099979482744 0.0
  endloop
endfacet
facet normal -3.417738622161202e-19 3.487865008577031e-19 -1.0
  outer loop
    vertex 78.28733731840748 135.18099979482744 0.0
    vertex 72.28733731840762 147.18099979482744 0.0
    vertex 78.28733731840748 188.1809997948275 0.0
  endloop
endfacet
facet normal -3.417738622161202e-19 3.487865008577031e-19 -1.0
  outer loop
    vertex 24.287337318407573 135.18099979482741 0.0
    vertex 30.287337318407612 147.18099979482744 0.0
    vertex 36.28733731840751 135.18099979482741 0.0
  endloop
endfacet
facet normal -3.417738622161202e-19 3.487865008577031e-19 -1.0
  outer loop
    vertex 30.287337318407612 147.18099979482744 0.0
    vertex 24.287337318407573 135.18099979482741 0.0
    vertex 30.287337318407612 177.18099979482747 0.0
  endloop
endfacet
facet normal -3.417738622161202e-19 3.487865008577031e-19 -1.0
  outer loop
    vertex 36.28733731840751 135.18099979482741 0.0
    vertex 30.287337318407612 147.18099979482744 0.0
    vertex 36.28733731840751 141.18099979482744 0.0
  endloop
endfacet
facet normal -0.7071067811865422 0.7071067811865529 0.0
  outer loop
    vertex 66.28733731840755 141.18099979482744 7.0
    vertex 72.28733731840762 147.18099979482744 0.0
    vertex 66.28733731840755 141.18099979482744 0.0
  endloop
endfacet
facet normal -0.7071067811865422 0.7071067811865529 0.0
  outer loop
    vertex 72.28733731840762 147.18099979482744 0.0
    vertex 66.28733731840755 141.18099979482744 7.0
    vertex 72.28733731840762 147.18099979482744 7.0
  endloop
endfacet
facet normal 0.0 0.0 1.0
  outer loop
    vertex 78.28733731840748 183.18099979482747 30.0
    vertex 24.287337318407573 188.1809997948275 30.0
    vertex 24.287337318407573 183.18099979482747 30.0
  endloop
endfacet
facet normal 0.0 0.0 1.0
  outer loop
    vertex 24.287337318407573 188.1809997948275 30.0
    vertex 78.28733731840748 183.18099979482747 30.0
    vertex 78.28733731840748 188.1809997948275 30.0
  endloop
endfacet
facet normal -0.13052619222007503 0.0 0.9914448613738075
  outer loop
    vertex 44.67556588606121 186.1809997948275 16.55111126056638
    vertex 44.287337318407495 188.18099979482778 16.499999999999982
    vertex 44.287337318407495 186.1809997948275 16.499999999999982
  endloop
endfacet
facet normal -0.13052619222007503 0.0 0.9914448613738075
  outer loop
    vertex 44.287337318407495 188.18099979482778 16.499999999999982
    vertex 44.67556588606121 186.1809997948275 16.55111126056638
    vertex 44.67556588606121 188.18099979482778 16.55111126056638
  endloop
endfacet
facet normal 0.38268343236502184 0.0 0.9238795325113149
  outer loop
    vertex 43.89910875075378 186.1809997948275 16.55111126056638
    vertex 43.53733731840749 188.18099979482778 16.700961894323324
    vertex 43.53733731840749 186.1809997948275 16.700961894323324
  endloop
endfacet
facet normal 0.38268343236502184 0.0 0.9238795325113149
  outer loop
    vertex 43.53733731840749 188.18099979482778 16.700961894323324
    vertex 43.89910875075378 186.1809997948275 16.55111126056638
    vertex 43.89910875075378 188.18099979482778 16.55111126056638
  endloop
endfacet
facet normal -0.6087614290087636 0.0 0.7933533402912023
  outer loop
    vertex 45.347997490187296 186.1809997948275 16.939339828220167
    vertex 45.03733731840751 188.18099979482778 16.700961894323324
    vertex 45.03733731840751 186.1809997948275 16.700961894323324
  endloop
endfacet
facet normal -0.6087614290087636 0.0 0.7933533402912023
  outer loop
    vertex 45.03733731840751 188.18099979482778 16.700961894323324
    vertex 45.347997490187296 186.1809997948275 16.939339828220167
    vertex 45.347997490187296 188.18099979482778 16.939339828220167
  endloop
endfacet
facet normal 0.9914448613738339 0.0 0.13052619221987283
  outer loop
    vertex 42.838448578973804 188.18099979482778 17.611771432346213
    vertex 42.787337318407474 186.1809997948275 18.0
    vertex 42.838448578973804 186.1809997948275 17.611771432346213
  endloop
endfacet
facet normal 0.9914448613738339 0.0 0.13052619221987283
  outer loop
    vertex 42.787337318407474 186.1809997948275 18.0
    vertex 42.838448578973804 188.18099979482778 17.611771432346213
    vertex 42.787337318407474 188.18099979482778 18.0
  endloop
endfacet
facet normal 0.0 0.0 -1.0
  outer loop
    vertex 47.28733731840754 186.1809997948275 21.0
    vertex 41.28733731840746 183.18099979482747 21.0
    vertex 41.28733731840746 186.1809997948275 21.0
  endloop
endfacet
facet normal 0.0 0.0 -1.0
  outer loop
    vertex 41.28733731840746 183.18099979482747 21.0
    vertex 47.28733731840754 186.1809997948275 21.0
    vertex 47.28733731840754 183.18099979482747 21.0
  endloop
endfacet
facet normal 0.38268343236502184 0.0 -0.9238795325113149
  outer loop
    vertex 43.89910875075378 188.18099979482778 19.448888739433624
    vertex 43.53733731840749 186.1809997948275 19.299038105676676
    vertex 43.53733731840749 188.18099979482778 19.299038105676676
  endloop
endfacet
facet normal 0.38268343236502184 0.0 -0.9238795325113149
  outer loop
    vertex 43.53733731840749 186.1809997948275 19.299038105676676
    vertex 43.89910875075378 188.18099979482778 19.448888739433624
    vertex 43.89910875075378 186.1809997948275 19.448888739433624
  endloop
endfacet
facet normal -0.9914448613738339 0.0 0.13052619221987283
  outer loop
    vertex 45.787337318407516 188.18099979482778 18.0
    vertex 45.736226057841186 186.1809997948275 17.611771432346213
    vertex 45.787337318407516 186.1809997948275 18.0
  endloop
endfacet
facet normal -0.9914448613738339 0.0 0.13052619221987283
  outer loop
    vertex 45.736226057841186 186.1809997948275 17.611771432346213
    vertex 45.787337318407516 188.18099979482778 18.0
    vertex 45.736226057841186 188.18099979482778 17.611771432346213
  endloop
endfacet
facet normal -0.9238795325113017 0.0 -0.3826834323650537
  outer loop
    vertex 59.58637542408432 188.1809997948277 18.75000000000001
    vertex 59.73622605784126 186.18099979482733 18.388228567653787
    vertex 59.58637542408432 186.18099979482733 18.75000000000001
  endloop
endfacet
facet normal -0.9238795325113017 0.0 -0.3826834323650537
  outer loop
    vertex 59.73622605784126 186.18099979482733 18.388228567653787
    vertex 59.58637542408432 188.1809997948277 18.75000000000001
    vertex 59.73622605784126 188.1809997948277 18.388228567653787
  endloop
endfacet
facet normal 0.9914448613738339 0.0 -0.13052619221987377
  outer loop
    vertex 56.787337318407545 188.1809997948277 18.0
    vertex 56.83844857897387 186.18099979482733 18.388228567653783
    vertex 56.787337318407545 186.18099979482733 18.0
  endloop
endfacet
facet normal 0.9914448613738339 0.0 -0.13052619221987377
  outer loop
    vertex 56.83844857897387 186.18099979482733 18.388228567653783
    vertex 56.787337318407545 188.1809997948277 18.0
    vertex 56.83844857897387 188.1809997948277 18.388228567653783
  endloop
endfacet
facet normal 0.9238795325113028 0.0 -0.3826834323650512
  outer loop
    vertex 56.83844857897387 188.1809997948277 18.388228567653783
    vertex 56.9882992127308 186.18099979482733 18.75000000000001
    vertex 56.83844857897387 186.18099979482733 18.388228567653783
  endloop
endfacet
facet normal 0.9238795325113028 0.0 -0.3826834323650512
  outer loop
    vertex 56.9882992127308 186.18099979482733 18.75000000000001
    vertex 56.83844857897387 188.1809997948277 18.388228567653783
    vertex 56.9882992127308 188.1809997948277 18.75000000000001
  endloop
endfacet
facet normal 0.9238795325113028 0.0 -0.3826834323650512
  outer loop
    vertex 42.838448578973804 188.18099979482778 18.388228567653783
    vertex 42.98829921273073 186.1809997948275 18.75000000000001
    vertex 42.838448578973804 186.1809997948275 18.388228567653783
  endloop
endfacet
facet normal 0.9238795325113028 0.0 -0.3826834323650512
  outer loop
    vertex 42.98829921273073 186.1809997948275 18.75000000000001
    vertex 42.838448578973804 188.18099979482778 18.388228567653783
    vertex 42.98829921273073 188.18099979482778 18.75000000000001
  endloop
endfacet
facet normal 0.0 0.0 1.0
  outer loop
    vertex 61.2873373184076 183.18099979482747 15.0
    vertex 55.28733731840752 186.18099979482733 15.0
    vertex 55.28733731840752 183.18099979482747 15.0
  endloop
endfacet
facet normal 0.0 0.0 1.0
  outer loop
    vertex 55.28733731840752 186.18099979482733 15.0
    vertex 61.2873373184076 183.18099979482747 15.0
    vertex 61.2873373184076 186.18099979482733 15.0
  endloop
endfacet
facet normal -0.9914448613738339 0.0 0.13052619221987377
  outer loop
    vertex 59.78733731840758 188.1809997948277 18.0
    vertex 59.73622605784126 186.18099979482733 17.611771432346217
    vertex 59.78733731840758 186.18099979482733 18.0
  endloop
endfacet
facet normal -0.9914448613738339 0.0 0.13052619221987377
  outer loop
    vertex 59.73622605784126 186.18099979482733 17.611771432346217
    vertex 59.78733731840758 188.1809997948277 18.0
    vertex 59.73622605784126 188.1809997948277 17.611771432346217
  endloop
endfacet
facet normal 0.13052619222007503 0.0 -0.9914448613738075
  outer loop
    vertex 44.287337318407495 188.18099979482778 19.50000000000002
    vertex 43.89910875075378 186.1809997948275 19.448888739433624
    vertex 43.89910875075378 188.18099979482778 19.448888739433624
  endloop
endfacet
facet normal 0.13052619222007503 0.0 -0.9914448613738075
  outer loop
    vertex 43.89910875075378 186.1809997948275 19.448888739433624
    vertex 44.287337318407495 188.18099979482778 19.50000000000002
    vertex 44.287337318407495 186.1809997948275 19.50000000000002
  endloop
endfacet
facet normal 1.0 0.0 0.0
  outer loop
    vertex 41.28733731840746 186.1809997948275 15.0
    vertex 41.28733731840746 183.18099979482747 21.0
    vertex 41.28733731840746 183.18099979482747 15.0
  endloop
endfacet
facet normal 1.0 0.0 0.0
  outer loop
    vertex 41.28733731840746 183.18099979482747 21.0
    vertex 41.28733731840746 186.1809997948275 15.0
    vertex 41.28733731840746 186.1809997948275 21.0
  endloop
endfacet
facet normal 0.7933533402910847 0.0 0.6087614290089166
  outer loop
    vertex 57.22667714662776 188.1809997948277 16.939339828220167
    vertex 56.9882992127308 186.18099979482733 17.24999999999999
    vertex 57.22667714662776 186.18099979482733 16.939339828220167
  endloop
endfacet
facet normal 0.7933533402910847 0.0 0.6087614290089166
  outer loop
    vertex 56.9882992127308 186.18099979482733 17.24999999999999
    vertex 57.22667714662776 188.1809997948277 16.939339828220167
    vertex 56.9882992127308 188.1809997948277 17.24999999999999
  endloop
endfacet
facet normal 0.13052619222007503 0.0 -0.9914448613738075
  outer loop
    vertex 58.28733731840756 188.1809997948277 19.50000000000002
    vertex 57.899108750753854 186.18099979482733 19.448888739433624
    vertex 57.899108750753854 188.1809997948277 19.448888739433624
  endloop
endfacet
facet normal 0.13052619222007503 0.0 -0.9914448613738075
  outer loop
    vertex 57.899108750753854 186.18099979482733 19.448888739433624
    vertex 58.28733731840756 188.1809997948277 19.50000000000002
    vertex 58.28733731840756 186.18099979482733 19.50000000000002
  endloop
endfacet
facet normal 0.0 -1.0 0.0
  outer loop
    vertex 47.28733731840754 186.1809997948275 15.0
    vertex 45.03733731840751 186.1809997948275 16.700961894323324
    vertex 41.28733731840746 186.1809997948275 15.0
  endloop
endfacet
facet normal 0.0 -1.0 0.0
  outer loop
    vertex 45.03733731840751 186.1809997948275 16.700961894323324
    vertex 47.28733731840754 186.1809997948275 15.0
    vertex 45.347997490187296 186.1809997948275 16.939339828220167
  endloop
endfacet
facet normal 0.0 -1.0 0.0
  outer loop
    vertex 45.347997490187296 186.1809997948275 16.939339828220167
    vertex 47.28733731840754 186.1809997948275 15.0
    vertex 45.58637542408426 186.1809997948275 17.24999999999999
  endloop
endfacet
facet normal 0.0 -1.0 0.0
  outer loop
    vertex 45.58637542408426 186.1809997948275 17.24999999999999
    vertex 47.28733731840754 186.1809997948275 15.0
    vertex 47.28733731840754 186.1809997948275 21.0
  endloop
endfacet
facet normal 0.0 -1.0 0.0
  outer loop
    vertex 41.28733731840746 186.1809997948275 15.0
    vertex 45.03733731840751 186.1809997948275 16.700961894323324
    vertex 44.67556588606121 186.1809997948275 16.55111126056638
  endloop
endfacet
facet normal 0.0 -1.0 0.0
  outer loop
    vertex 41.28733731840746 186.1809997948275 15.0
    vertex 44.67556588606121 186.1809997948275 16.55111126056638
    vertex 44.287337318407495 186.1809997948275 16.499999999999982
  endloop
endfacet
facet normal 0.0 -1.0 0.0
  outer loop
    vertex 45.58637542408426 186.1809997948275 17.24999999999999
    vertex 47.28733731840754 186.1809997948275 21.0
    vertex 45.736226057841186 186.1809997948275 17.611771432346213
  endloop
endfacet
facet normal 0.0 -1.0 0.0
  outer loop
    vertex 45.736226057841186 186.1809997948275 17.611771432346213
    vertex 47.28733731840754 186.1809997948275 21.0
    vertex 45.787337318407516 186.1809997948275 18.0
  endloop
endfacet
facet normal 0.0 -1.0 0.0
  outer loop
    vertex 45.787337318407516 186.1809997948275 18.0
    vertex 47.28733731840754 186.1809997948275 21.0
    vertex 45.736226057841186 186.1809997948275 18.388228567653787
  endloop
endfacet
facet normal 0.0 -1.0 0.0
  outer loop
    vertex 45.736226057841186 186.1809997948275 18.388228567653787
    vertex 47.28733731840754 186.1809997948275 21.0
    vertex 45.58637542408426 186.1809997948275 18.75000000000001
  endloop
endfacet
facet normal 0.0 -1.0 0.0
  outer loop
    vertex 45.58637542408426 186.1809997948275 18.75000000000001
    vertex 47.28733731840754 186.1809997948275 21.0
    vertex 45.347997490187296 186.1809997948275 19.060660171779837
  endloop
endfacet
facet normal 0.0 -1.0 0.0
  outer loop
    vertex 45.347997490187296 186.1809997948275 19.060660171779837
    vertex 47.28733731840754 186.1809997948275 21.0
    vertex 45.03733731840751 186.1809997948275 19.299038105676676
  endloop
endfacet
facet normal 0.0 -1.0 0.0
  outer loop
    vertex 45.03733731840751 186.1809997948275 19.299038105676676
    vertex 47.28733731840754 186.1809997948275 21.0
    vertex 44.67556588606121 186.1809997948275 19.448888739433624
  endloop
endfacet
facet normal 0.0 -1.0 0.0
  outer loop
    vertex 44.67556588606121 186.1809997948275 19.448888739433624
    vertex 47.28733731840754 186.1809997948275 21.0
    vertex 44.287337318407495 186.1809997948275 19.50000000000002
  endloop
endfacet
facet normal 0.0 -1.0 0.0
  outer loop
    vertex 41.28733731840746 186.1809997948275 15.0
    vertex 42.98829921273073 186.1809997948275 17.24999999999999
    vertex 41.28733731840746 186.1809997948275 21.0
  endloop
endfacet
facet normal 0.0 -1.0 0.0
  outer loop
    vertex 42.98829921273073 186.1809997948275 17.24999999999999
    vertex 41.28733731840746 186.1809997948275 15.0
    vertex 43.226677146627694 186.1809997948275 16.939339828220167
  endloop
endfacet
facet normal 0.0 -1.0 0.0
  outer loop
    vertex 43.226677146627694 186.1809997948275 16.939339828220167
    vertex 41.28733731840746 186.1809997948275 15.0
    vertex 43.53733731840749 186.1809997948275 16.700961894323324
  endloop
endfacet
facet normal 0.0 -1.0 0.0
  outer loop
    vertex 43.53733731840749 186.1809997948275 16.700961894323324
    vertex 41.28733731840746 186.1809997948275 15.0
    vertex 43.89910875075378 186.1809997948275 16.55111126056638
  endloop
endfacet
facet normal 0.0 -1.0 0.0
  outer loop
    vertex 43.89910875075378 186.1809997948275 16.55111126056638
    vertex 41.28733731840746 186.1809997948275 15.0
    vertex 44.287337318407495 186.1809997948275 16.499999999999982
  endloop
endfacet
facet normal 0.0 -1.0 0.0
  outer loop
    vertex 41.28733731840746 186.1809997948275 21.0
    vertex 42.98829921273073 186.1809997948275 17.24999999999999
    vertex 42.838448578973804 186.1809997948275 17.611771432346213
  endloop
endfacet
facet normal 0.0 -1.0 0.0
  outer loop
    vertex 41.28733731840746 186.1809997948275 21.0
    vertex 42.838448578973804 186.1809997948275 17.611771432346213
    vertex 42.787337318407474 186.1809997948275 18.0
  endloop
endfacet
facet normal 0.0 -1.0 0.0
  outer loop
    vertex 41.28733731840746 186.1809997948275 21.0
    vertex 42.787337318407474 186.1809997948275 18.0
    vertex 42.838448578973804 186.1809997948275 18.388228567653783
  endloop
endfacet
facet normal 0.0 -1.0 0.0
  outer loop
    vertex 41.28733731840746 186.1809997948275 21.0
    vertex 42.838448578973804 186.1809997948275 18.388228567653783
    vertex 42.98829921273073 186.1809997948275 18.75000000000001
  endloop
endfacet
facet normal 0.0 -1.0 0.0
  outer loop
    vertex 41.28733731840746 186.1809997948275 21.0
    vertex 42.98829921273073 186.1809997948275 18.75000000000001
    vertex 43.226677146627694 186.1809997948275 19.060660171779837
  endloop
endfacet
facet normal 0.0 -1.0 0.0
  outer loop
    vertex 41.28733731840746 186.1809997948275 21.0
    vertex 43.226677146627694 186.1809997948275 19.060660171779837
    vertex 43.53733731840749 186.1809997948275 19.299038105676676
  endloop
endfacet
facet normal 0.0 -1.0 0.0
  outer loop
    vertex 41.28733731840746 186.1809997948275 21.0
    vertex 43.53733731840749 186.1809997948275 19.299038105676676
    vertex 43.89910875075378 186.1809997948275 19.448888739433624
  endloop
endfacet
facet normal 0.0 -1.0 0.0
  outer loop
    vertex 41.28733731840746 186.1809997948275 21.0
    vertex 43.89910875075378 186.1809997948275 19.448888739433624
    vertex 44.287337318407495 186.1809997948275 19.50000000000002
  endloop
endfacet
facet normal 0.0 -1.0 0.0
  outer loop
    vertex 41.28733731840746 186.1809997948275 21.0
    vertex 44.287337318407495 186.1809997948275 19.50000000000002
    vertex 47.28733731840754 186.1809997948275 21.0
  endloop
endfacet
facet normal -0.38268343236502184 0.0 -0.9238795325113149
  outer loop
    vertex 59.03733731840757 188.1809997948277 19.299038105676676
    vertex 58.67556588606127 186.18099979482733 19.448888739433624
    vertex 58.67556588606127 188.1809997948277 19.448888739433624
  endloop
endfacet
facet normal -0.38268343236502184 0.0 -0.9238795325113149
  outer loop
    vertex 58.67556588606127 186.18099979482733 19.448888739433624
    vertex 59.03733731840757 188.1809997948277 19.299038105676676
    vertex 59.03733731840757 186.18099979482733 19.299038105676676
  endloop
endfacet
facet normal 0.9238795325113017 0.0 0.3826834323650537
  outer loop
    vertex 56.9882992127308 188.1809997948277 17.24999999999999
    vertex 56.83844857897387 186.18099979482733 17.611771432346213
    vertex 56.9882992127308 186.18099979482733 17.24999999999999
  endloop
endfacet
facet normal 0.9238795325113017 0.0 0.3826834323650537
  outer loop
    vertex 56.83844857897387 186.18099979482733 17.611771432346213
    vertex 56.9882992127308 188.1809997948277 17.24999999999999
    vertex 56.83844857897387 188.1809997948277 17.611771432346213
  endloop
endfacet
facet normal -0.9238795325113017 0.0 -0.3826834323650537
  outer loop
    vertex 45.58637542408426 188.18099979482778 18.75000000000001
    vertex 45.736226057841186 186.1809997948275 18.388228567653787
    vertex 45.58637542408426 186.1809997948275 18.75000000000001
  endloop
endfacet
facet normal -0.9238795325113017 0.0 -0.3826834323650537
  outer loop
    vertex 45.736226057841186 186.1809997948275 18.388228567653787
    vertex 45.58637542408426 188.18099979482778 18.75000000000001
    vertex 45.736226057841186 188.18099979482778 18.388228567653787
  endloop
endfacet
facet normal 0.13052619222007503 0.0 0.9914448613738075
  outer loop
    vertex 44.287337318407495 186.1809997948275 16.499999999999982
    vertex 43.89910875075378 188.18099979482778 16.55111126056638
    vertex 43.89910875075378 186.1809997948275 16.55111126056638
  endloop
endfacet
facet normal 0.13052619222007503 0.0 0.9914448613738075
  outer loop
    vertex 43.89910875075378 188.18099979482778 16.55111126056638
    vertex 44.287337318407495 186.1809997948275 16.499999999999982
    vertex 44.287337318407495 188.18099979482778 16.499999999999982
  endloop
endfacet
facet normal -0.13052619222007503 0.0 0.9914448613738075
  outer loop
    vertex 58.67556588606127 186.18099979482733 16.55111126056638
    vertex 58.28733731840756 188.1809997948277 16.499999999999982
    vertex 58.28733731840756 186.18099979482733 16.499999999999982
  endloop
endfacet
facet normal -0.13052619222007503 0.0 0.9914448613738075
  outer loop
    vertex 58.28733731840756 188.1809997948277 16.499999999999982
    vertex 58.67556588606127 186.18099979482733 16.55111126056638
    vertex 58.67556588606127 188.1809997948277 16.55111126056638
  endloop
endfacet
facet normal -0.9238795325113028 0.0 0.3826834323650512
  outer loop
    vertex 59.73622605784126 188.1809997948277 17.611771432346217
    vertex 59.58637542408432 186.18099979482733 17.24999999999999
    vertex 59.73622605784126 186.18099979482733 17.611771432346217
  endloop
endfacet
facet normal -0.9238795325113028 0.0 0.3826834323650512
  outer loop
    vertex 59.58637542408432 186.18099979482733 17.24999999999999
    vertex 59.73622605784126 188.1809997948277 17.611771432346217
    vertex 59.58637542408432 188.1809997948277 17.24999999999999
  endloop
endfacet
facet normal 1.0 0.0 0.0
  outer loop
    vertex 55.28733731840752 186.18099979482733 15.0
    vertex 55.28733731840752 183.18099979482747 21.0
    vertex 55.28733731840752 183.18099979482747 15.0
  endloop
endfacet
facet normal 1.0 0.0 0.0
  outer loop
    vertex 55.28733731840752 183.18099979482747 21.0
    vertex 55.28733731840752 186.18099979482733 15.0
    vertex 55.28733731840752 186.18099979482733 21.0
  endloop
endfacet
facet normal -0.38268343236502184 0.0 -0.9238795325113149
  outer loop
    vertex 45.03733731840751 188.18099979482778 19.299038105676676
    vertex 44.67556588606121 186.1809997948275 19.448888739433624
    vertex 44.67556588606121 188.18099979482778 19.448888739433624
  endloop
endfacet
facet normal -0.38268343236502184 0.0 -0.9238795325113149
  outer loop
    vertex 44.67556588606121 186.1809997948275 19.448888739433624
    vertex 45.03733731840751 188.18099979482778 19.299038105676676
    vertex 45.03733731840751 186.1809997948275 19.299038105676676
  endloop
endfacet
facet normal 0.0 -1.0 0.0
  outer loop
    vertex 78.28733731840748 183.18099979482747 30.0
    vertex 66.28733731840755 183.18099979482747 7.0
    vertex 78.28733731840748 183.18099979482747 7.0
  endloop
endfacet
facet normal 0.0 -1.0 0.0
  outer loop
    vertex 66.28733731840755 183.18099979482747 7.0
    vertex 78.28733731840748 183.18099979482747 30.0
    vertex 61.2873373184076 183.18099979482747 15.0
  endloop
endfacet
facet normal 0.0 -1.0 0.0
  outer loop
    vertex 66.28733731840755 183.18099979482747 7.0
    vertex 61.2873373184076 183.18099979482747 15.0
    vertex 36.28733731840751 183.18099979482747 7.0
  endloop
endfacet
facet normal 0.0 -1.0 0.0
  outer loop
    vertex 36.28733731840751 183.18099979482747 7.0
    vertex 61.2873373184076 183.18099979482747 15.0
    vertex 24.287337318407573 183.18099979482747 7.0
  endloop
endfacet
facet normal 0.0 -1.0 0.0
  outer loop
    vertex 61.2873373184076 183.18099979482747 15.0
    vertex 78.28733731840748 183.18099979482747 30.0
    vertex 61.2873373184076 183.18099979482747 21.0
  endloop
endfacet
facet normal 0.0 -1.0 0.0
  outer loop
    vertex 61.2873373184076 183.18099979482747 21.0
    vertex 78.28733731840748 183.18099979482747 30.0
    vertex 55.28733731840752 183.18099979482747 21.0
  endloop
endfacet
facet normal 0.0 -1.0 0.0
  outer loop
    vertex 55.28733731840752 183.18099979482747 21.0
    vertex 78.28733731840748 183.18099979482747 30.0
    vertex 47.28733731840754 183.18099979482747 21.0
  endloop
endfacet
facet normal 0.0 -1.0 0.0
  outer loop
    vertex 47.28733731840754 183.18099979482747 21.0
    vertex 78.28733731840748 183.18099979482747 30.0
    vertex 41.28733731840746 183.18099979482747 21.0
  endloop
endfacet
facet normal 0.0 -1.0 0.0
  outer loop
    vertex 24.287337318407573 183.18099979482747 7.0
    vertex 41.28733731840746 183.18099979482747 15.0
    vertex 24.287337318407573 183.18099979482747 30.0
  endloop
endfacet
facet normal 0.0 -1.0 0.0
  outer loop
    vertex 41.28733731840746 183.18099979482747 15.0
    vertex 24.287337318407573 183.18099979482747 7.0
    vertex 61.2873373184076 183.18099979482747 15.0
  endloop
endfacet
facet normal 0.0 -1.0 0.0
  outer loop
    vertex 41.28733731840746 183.18099979482747 15.0
    vertex 61.2873373184076 183.18099979482747 15.0
    vertex 55.28733731840752 183.18099979482747 15.0
  endloop
endfacet
facet normal 0.0 -1.0 0.0
  outer loop
    vertex 41.28733731840746 183.18099979482747 15.0
    vertex 55.28733731840752 183.18099979482747 15.0
    vertex 47.28733731840754 183.18099979482747 15.0
  endloop
endfacet
facet normal 0.0 -1.0 0.0
  outer loop
    vertex 24.287337318407573 183.18099979482747 30.0
    vertex 41.28733731840746 183.18099979482747 15.0
    vertex 41.28733731840746 183.18099979482747 21.0
  endloop
endfacet
facet normal 0.0 -1.0 0.0
  outer loop
    vertex 24.287337318407573 183.18099979482747 30.0
    vertex 41.28733731840746 183.18099979482747 21.0
    vertex 78.28733731840748 183.18099979482747 30.0
  endloop
endfacet
facet normal 0.0 -1.0 0.0
  outer loop
    vertex 55.28733731840752 183.18099979482747 21.0
    vertex 47.28733731840754 183.18099979482747 15.0
    vertex 55.28733731840752 183.18099979482747 15.0
  endloop
endfacet
facet normal 0.0 -1.0 0.0
  outer loop
    vertex 47.28733731840754 183.18099979482747 15.0
    vertex 55.28733731840752 183.18099979482747 21.0
    vertex 47.28733731840754 183.18099979482747 21.0
  endloop
endfacet
facet normal 0.0 -1.0 0.0
  outer loop
    vertex 66.28733731840755 183.18099979482747 7.0
    vertex 36.28733731840751 183.18099979482747 0.0
    vertex 66.28733731840755 183.18099979482747 0.0
  endloop
endfacet
facet normal 0.0 -1.0 0.0
  outer loop
    vertex 36.28733731840751 183.18099979482747 0.0
    vertex 66.28733731840755 183.18099979482747 7.0
    vertex 36.28733731840751 183.18099979482747 7.0
  endloop
endfacet
facet normal 0.9914448613738339 0.0 0.13052619221987283
  outer loop
    vertex 56.83844857897387 188.1809997948277 17.611771432346213
    vertex 56.787337318407545 186.18099979482733 18.0
    vertex 56.83844857897387 186.18099979482733 17.611771432346213
  endloop
endfacet
facet normal 0.9914448613738339 0.0 0.13052619221987283
  outer loop
    vertex 56.787337318407545 186.18099979482733 18.0
    vertex 56.83844857897387 188.1809997948277 17.611771432346213
    vertex 56.787337318407545 188.1809997948277 18.0
  endloop
endfacet
facet normal -0.6087614290087636 0.0 0.7933533402912023
  outer loop
    vertex 59.34799749018736 186.18099979482733 16.939339828220167
    vertex 59.03733731840757 188.1809997948277 16.700961894323324
    vertex 59.03733731840757 186.18099979482733 16.700961894323324
  endloop
endfacet
facet normal -0.6087614290087636 0.0 0.7933533402912023
  outer loop
    vertex 59.03733731840757 188.1809997948277 16.700961894323324
    vertex 59.34799749018736 186.18099979482733 16.939339828220167
    vertex 59.34799749018736 188.1809997948277 16.939339828220167
  endloop
endfacet
facet normal 0.7933533402910847 0.0 -0.6087614290089166
  outer loop
    vertex 56.9882992127308 188.1809997948277 18.75000000000001
    vertex 57.22667714662776 186.18099979482733 19.060660171779837
    vertex 56.9882992127308 186.18099979482733 18.75000000000001
  endloop
endfacet
facet normal 0.7933533402910847 0.0 -0.6087614290089166
  outer loop
    vertex 57.22667714662776 186.18099979482733 19.060660171779837
    vertex 56.9882992127308 188.1809997948277 18.75000000000001
    vertex 57.22667714662776 188.1809997948277 19.060660171779837
  endloop
endfacet
facet normal 0.13052619222007503 0.0 0.9914448613738075
  outer loop
    vertex 58.28733731840756 186.18099979482733 16.499999999999982
    vertex 57.899108750753854 188.1809997948277 16.55111126056638
    vertex 57.899108750753854 186.18099979482733 16.55111126056638
  endloop
endfacet
facet normal 0.13052619222007503 0.0 0.9914448613738075
  outer loop
    vertex 57.899108750753854 188.1809997948277 16.55111126056638
    vertex 58.28733731840756 186.18099979482733 16.499999999999982
    vertex 58.28733731840756 188.1809997948277 16.499999999999982
  endloop
endfacet
facet normal -0.38268343236502184 0.0 0.9238795325113149
  outer loop
    vertex 59.03733731840757 186.18099979482733 16.700961894323324
    vertex 58.67556588606127 188.1809997948277 16.55111126056638
    vertex 58.67556588606127 186.18099979482733 16.55111126056638
  endloop
endfacet
facet normal -0.38268343236502184 0.0 0.9238795325113149
  outer loop
    vertex 58.67556588606127 188.1809997948277 16.55111126056638
    vertex 59.03733731840757 186.18099979482733 16.700961894323324
    vertex 59.03733731840757 188.1809997948277 16.700961894323324
  endloop
endfacet
facet normal 0.0 0.0 1.0
  outer loop
    vertex 47.28733731840754 183.18099979482747 15.0
    vertex 41.28733731840746 186.1809997948275 15.0
    vertex 41.28733731840746 183.18099979482747 15.0
  endloop
endfacet
facet normal 0.0 0.0 1.0
  outer loop
    vertex 41.28733731840746 186.1809997948275 15.0
    vertex 47.28733731840754 183.18099979482747 15.0
    vertex 47.28733731840754 186.1809997948275 15.0
  endloop
endfacet
facet normal 0.6087614290087636 0.0 -0.7933533402912023
  outer loop
    vertex 43.53733731840749 188.18099979482778 19.299038105676676
    vertex 43.226677146627694 186.1809997948275 19.060660171779837
    vertex 43.226677146627694 188.18099979482778 19.060660171779837
  endloop
endfacet
facet normal 0.6087614290087636 0.0 -0.7933533402912023
  outer loop
    vertex 43.226677146627694 186.1809997948275 19.060660171779837
    vertex 43.53733731840749 188.18099979482778 19.299038105676676
    vertex 43.53733731840749 186.1809997948275 19.299038105676676
  endloop
endfacet
facet normal 0.38268343236502184 0.0 0.9238795325113149
  outer loop
    vertex 57.899108750753854 186.18099979482733 16.55111126056638
    vertex 57.53733731840755 188.1809997948277 16.700961894323324
    vertex 57.53733731840755 186.18099979482733 16.700961894323324
  endloop
endfacet
facet normal 0.38268343236502184 0.0 0.9238795325113149
  outer loop
    vertex 57.53733731840755 188.1809997948277 16.700961894323324
    vertex 57.899108750753854 186.18099979482733 16.55111126056638
    vertex 57.899108750753854 188.1809997948277 16.55111126056638
  endloop
endfacet
facet normal 1.0 0.0 0.0
  outer loop
    vertex 36.28733731840751 135.18099979482741 0.0
    vertex 36.28733731840751 137.18099979482744 1.5
    vertex 36.28733731840751 135.18099979482741 7.0
  endloop
endfacet
facet normal 1.0 0.0 0.0
  outer loop
    vertex 36.28733731840751 137.18099979482744 1.5
    vertex 36.28733731840751 135.18099979482741 0.0
    vertex 36.28733731840751 141.18099979482744 0.0
  endloop
endfacet
facet normal 1.0 0.0 0.0
  outer loop
    vertex 36.28733731840751 137.18099979482744 1.5
    vertex 36.28733731840751 141.18099979482744 0.0
    vertex 36.28733731840751 139.18099979482744 1.5
  endloop
endfacet
facet normal 1.0 0.0 0.0
  outer loop
    vertex 36.28733731840751 139.18099979482744 1.5
    vertex 36.28733731840751 141.18099979482744 0.0
    vertex 36.28733731840751 139.18099979482744 5.5
  endloop
endfacet
facet normal 1.0 0.0 0.0
  outer loop
    vertex 36.28733731840751 135.18099979482741 7.0
    vertex 36.28733731840751 137.18099979482744 5.5
    vertex 36.28733731840751 141.18099979482744 7.0
  endloop
endfacet
facet normal 1.0 0.0 0.0
  outer loop
    vertex 36.28733731840751 137.18099979482744 5.5
    vertex 36.28733731840751 135.18099979482741 7.0
    vertex 36.28733731840751 137.18099979482744 1.5
  endloop
endfacet
facet normal 1.0 0.0 0.0
  outer loop
    vertex 36.28733731840751 141.18099979482744 7.0
    vertex 36.28733731840751 137.18099979482744 5.5
    vertex 36.28733731840751 139.18099979482744 5.5
  endloop
endfacet
facet normal 1.0 0.0 0.0
  outer loop
    vertex 36.28733731840751 141.18099979482744 7.0
    vertex 36.28733731840751 139.18099979482744 5.5
    vertex 36.28733731840751 141.18099979482744 0.0
  endloop
endfacet
facet normal -0.0 -1.0 -0.0
  outer loop
    vertex 78.28733731840738 139.18099979482744 5.500000000000001
    vertex 66.28733731840755 139.18099979482744 1.5
    vertex 78.28733731840738 139.18099979482744 1.5
  endloop
endfacet
facet normal -0.0 -1.0 -0.0
  outer loop
    vertex 66.28733731840755 139.18099979482744 1.5
    vertex 78.28733731840738 139.18099979482744 5.500000000000001
    vertex 66.28733731840755 139.18099979482744 5.500000000000001
  endloop
endfacet
facet normal 0.0 0.0 -1.0
  outer loop
    vertex 78.28733731840738 139.18099979482744 5.500000000000001
    vertex 66.28733731840755 137.18099979482744 5.500000000000001
    vertex 66.28733731840755 139.18099979482744 5.500000000000001
  endloop
endfacet
facet normal 0.0 0.0 -1.0
  outer loop
    vertex 66.28733731840755 137.18099979482744 5.500000000000001
    vertex 78.28733731840738 139.18099979482744 5.500000000000001
    vertex 78.28733731840738 137.18099979482744 5.500000000000001
  endloop
endfacet
facet normal 0.0 0.0 1.0
  outer loop
    vertex 78.28733731840738 137.18099979482744 1.5
    vertex 66.28733731840755 139.18099979482744 1.5
    vertex 66.28733731840755 137.18099979482744 1.5
  endloop
endfacet
facet normal 0.0 0.0 1.0
  outer loop
    vertex 66.28733731840755 139.18099979482744 1.5
    vertex 78.28733731840738 137.18099979482744 1.5
    vertex 78.28733731840738 139.18099979482744 1.5
  endloop
endfacet
facet normal 0.0 1.0 0.0
  outer loop
    vertex 66.28733731840755 137.18099979482744 5.500000000000001
    vertex 78.28733731840738 137.18099979482744 1.5
    vertex 66.28733731840755 137.18099979482744 1.5
  endloop
endfacet
facet normal 0.0 1.0 0.0
  outer loop
    vertex 78.28733731840738 137.18099979482744 1.5
    vertex 66.28733731840755 137.18099979482744 5.500000000000001
    vertex 78.28733731840738 137.18099979482744 5.500000000000001
  endloop
endfacet
facet normal 0.0 -1.0 0.0
  outer loop
    vertex 36.28733731840751 139.18099979482744 5.5
    vertex 24.28733731840753 139.18099979482744 1.5
    vertex 36.28733731840751 139.18099979482744 1.5
  endloop
endfacet
facet normal 0.0 -1.0 0.0
  outer loop
    vertex 24.28733731840753 139.18099979482744 1.5
    vertex 36.28733731840751 139.18099979482744 5.5
    vertex 24.28733731840753 139.18099979482744 5.5
  endloop
endfacet
facet normal 0.0 1.0 0.0
  outer loop
    vertex 24.28733731840753 137.18099979482744 5.5
    vertex 36.28733731840751 137.18099979482744 1.5
    vertex 24.28733731840753 137.18099979482744 1.5
  endloop
endfacet
facet normal 0.0 1.0 0.0
  outer loop
    vertex 36.28733731840751 137.18099979482744 1.5
    vertex 24.28733731840753 137.18099979482744 5.5
    vertex 36.28733731840751 137.18099979482744 5.5
  endloop
endfacet
facet normal -0.0 -0.0 -1.0
  outer loop
    vertex 36.28733731840751 139.18099979482744 5.5
    vertex 24.28733731840753 137.18099979482744 5.5
    vertex 24.28733731840753 139.18099979482744 5.5
  endloop
endfacet
facet normal -0.0 -0.0 -1.0
  outer loop
    vertex 24.28733731840753 137.18099979482744 5.5
    vertex 36.28733731840751 139.18099979482744 5.5
    vertex 36.28733731840751 137.18099979482744 5.5
  endloop
endfacet
facet normal 0.0 0.0 1.0
  outer loop
    vertex 36.28733731840751 137.18099979482744 1.5
    vertex 24.28733731840753 139.18099979482744 1.5
    vertex 24.28733731840753 137.18099979482744 1.5
  endloop
endfacet
facet normal 0.0 0.0 1.0
  outer loop
    vertex 24.28733731840753 139.18099979482744 1.5
    vertex 36.28733731840751 137.18099979482744 1.5
    vertex 36.28733731840751 139.18099979482744 1.5
  endloop
endfacet
endsolid Dragchain setup complete
