<?xml version="1.0" encoding="UTF-8" standalone="no"?>
<!-- Created with Inkscape (http://www.inkscape.org/) -->

<svg
   version="1.1"
   id="svg1"
   width="952"
   height="952"
   viewBox="0 0 952 952"
   sodipodi:docname="Logo MY 02.svg"
   inkscape:version="1.4 (86a8ad7, 2024-10-11)"
   xmlns:inkscape="http://www.inkscape.org/namespaces/inkscape"
   xmlns:sodipodi="http://sodipodi.sourceforge.net/DTD/sodipodi-0.dtd"
   xmlns="http://www.w3.org/2000/svg"
   xmlns:svg="http://www.w3.org/2000/svg">
  <defs
     id="defs1" />
  <sodipodi:namedview
     id="namedview1"
     pagecolor="#ffffff"
     bordercolor="#000000"
     borderopacity="0.25"
     inkscape:showpageshadow="2"
     inkscape:pageopacity="0.0"
     inkscape:pagecheckerboard="0"
     inkscape:deskcolor="#d1d1d1"
     inkscape:zoom="0.81827731"
     inkscape:cx="475.38896"
     inkscape:cy="328.12837"
     inkscape:window-width="1680"
     inkscape:window-height="987"
     inkscape:window-x="1912"
     inkscape:window-y="-8"
     inkscape:window-maximized="1"
     inkscape:current-layer="g1" />
  <g
     inkscape:groupmode="layer"
     inkscape:label="Image"
     id="g1">
    <path
       style="fill:#ffffff;stroke:#ffffff"
       d="m 138.56471,505.17066 c 66.54788,-160.8772 122.25788,-295.34647 123.80001,-298.82061 6.73399,-15.17045 22.50113,-34.10455 36.90554,-44.31833 11.03259,-7.82291 22.41936,-13.33806 36.33429,-17.59842 11.49722,-3.52012 12.57775,-3.60154 54.72878,-4.12384 23.65,-0.29305 43,-0.17632 43,0.2594 0,1.43075 -242.68612,587.55839 -245.90627,593.90483 -11.40317,22.47398 -34.11645,43.20025 -58.37317,53.26652 -17.67219,7.33377 -25.83035,8.39689 -70.602941,9.20058 l -40.882384,0.73386 z m 380.63357,289.92151 c 3.86773,-12.18611 244.50449,-590.77096 248.94203,-598.55394 15.42515,-27.05411 44.70753,-47.98857 76.13681,-54.43146 13.51961,-2.77147 91.08013,-3.15063 90.02777,-0.4401 C 919.55053,179.669 688.87527,734.06748 685.34912,740 c -12.47647,20.99087 -31.87656,38.21191 -53.41791,47.41792 -19.12707,8.17423 -24.8233,8.94124 -71.05726,9.56797 -40.86071,0.55389 -42.42988,0.48259 -41.67567,-1.89372 z m 20.09569,-485.23631 c -38.11169,-92.11261 -69.50782,-168.05415 -69.76918,-168.75897 -0.30048,-0.81029 16.85917,-1.10343 46.66666,-0.79722 44.83044,0.46054 47.59951,0.6341 56.47522,3.53969 27.10522,8.87328 52.59589,29.76982 64.30562,52.71594 7.3545,14.4117 44.45217,105.58624 43.99731,108.13171 -0.70369,3.93802 -70.66432,172.64632 -71.59366,172.64632 -0.43341,0 -31.97029,-75.36486 -70.08197,-167.47747 z"
       id="path1" />
  </g>
</svg>
